<svg xmlns="http://www.w3.org/2000/svg" xmlns:xlink="http://www.w3.org/1999/xlink" width="1000" zoomAndPan="magnify" viewBox="0 0 750 599.999999" height="800" preserveAspectRatio="xMidYMid meet" version="1.0"><defs><clipPath id="37c1f69fda"><path d="M 70.730469 17.070312 L 690.230469 17.070312 L 690.230469 582.570312 L 70.730469 582.570312 Z M 70.730469 17.070312 " clip-rule="nonzero"/></clipPath><clipPath id="ab90ba7fc1"><path d="M 70.730469 17.070312 L 690.230469 17.070312 L 690.230469 169 L 70.730469 169 Z M 70.730469 17.070312 " clip-rule="nonzero"/></clipPath></defs><g clip-path="url(#37c1f69fda)"><path fill="#4e4cd3" d="M 644.460938 582.570312 L 116.132812 582.570312 C 91.097656 582.570312 70.777344 562.269531 70.777344 537.257812 L 70.777344 62.746094 C 70.777344 37.371094 91.097656 17.070312 116.132812 17.070312 L 644.460938 17.070312 C 669.5 17.070312 690.183594 37.371094 690.183594 62.746094 L 690.183594 537.257812 C 690.183594 562.269531 669.5 582.570312 644.460938 582.570312 Z M 644.460938 582.570312 " fill-opacity="1" fill-rule="evenodd"/></g><g clip-path="url(#ab90ba7fc1)"><path fill="#3e4095" d="M 70.777344 168.59375 L 70.777344 85.582031 L 402.433594 85.582031 L 402.433594 81.957031 C 402.433594 46.433594 431.097656 17.433594 466.660156 17.070312 L 644.460938 17.070312 C 669.5 17.070312 690.183594 37.371094 690.183594 62.746094 L 690.183594 168.59375 Z M 70.777344 168.59375 " fill-opacity="1" fill-rule="evenodd"/></g><path fill="#f06277" d="M 472.464844 122.195312 C 456.136719 122.195312 443.074219 108.78125 443.074219 92.832031 C 443.074219 76.519531 456.136719 63.46875 472.464844 63.46875 C 488.429688 63.46875 501.492188 76.519531 501.492188 92.832031 C 501.492188 108.78125 488.429688 122.195312 472.464844 122.195312 Z M 472.464844 122.195312 " fill-opacity="1" fill-rule="evenodd"/><path fill="#fcad42" d="M 552.292969 122.195312 C 536.328125 122.195312 522.902344 108.78125 522.902344 92.832031 C 522.902344 76.519531 536.328125 63.46875 552.292969 63.46875 C 568.625 63.46875 581.6875 76.519531 581.6875 92.832031 C 581.6875 108.78125 568.625 122.195312 552.292969 122.195312 Z M 552.292969 122.195312 " fill-opacity="1" fill-rule="evenodd"/><path fill="#22b37f" d="M 632.488281 122.195312 C 616.15625 122.195312 603.09375 108.78125 603.09375 92.832031 C 603.09375 76.519531 616.15625 63.46875 632.488281 63.46875 C 648.453125 63.46875 661.515625 76.519531 661.515625 92.832031 C 661.515625 108.78125 648.453125 122.195312 632.488281 122.195312 Z M 632.488281 122.195312 " fill-opacity="1" fill-rule="evenodd"/><path fill="#dbe3fd" d="M 85.289062 168.59375 L 85.289062 537.257812 C 85.289062 554.296875 99.078125 568.070312 116.132812 568.070312 L 644.460938 568.070312 C 661.515625 568.070312 675.667969 554.296875 675.667969 537.257812 L 675.667969 168.59375 Z M 85.289062 168.59375 " fill-opacity="1" fill-rule="evenodd"/><path fill="#ef4f6b" d="M 466.660156 71.082031 C 482.988281 71.082031 496.050781 84.132812 496.050781 100.082031 C 496.050781 105.15625 494.960938 109.871094 492.785156 113.859375 C 498.226562 108.421875 501.492188 101.171875 501.492188 92.832031 C 501.492188 76.519531 488.429688 63.46875 472.464844 63.46875 C 461.214844 63.46875 451.417969 69.996094 446.339844 79.058594 C 451.78125 73.984375 458.675781 71.082031 466.660156 71.082031 Z M 466.660156 71.082031 " fill-opacity="1" fill-rule="evenodd"/><path fill="#fb9e3f" d="M 546.851562 71.082031 C 562.816406 71.082031 575.878906 84.132812 575.878906 100.082031 C 575.878906 105.15625 574.792969 109.871094 572.613281 113.859375 C 578.058594 108.421875 581.6875 101.171875 581.6875 92.832031 C 581.6875 76.519531 568.625 63.46875 552.292969 63.46875 C 541.046875 63.46875 531.25 69.996094 526.53125 79.058594 C 531.609375 73.984375 538.867188 71.082031 546.851562 71.082031 Z M 546.851562 71.082031 " fill-opacity="1" fill-rule="evenodd"/><path fill="#22a476" d="M 626.679688 71.082031 C 643.011719 71.082031 656.074219 84.132812 656.074219 100.082031 C 656.074219 105.15625 654.984375 109.871094 652.808594 113.859375 C 658.25 108.421875 661.515625 101.171875 661.515625 92.832031 C 661.515625 76.519531 648.453125 63.46875 632.488281 63.46875 C 621.238281 63.46875 611.441406 69.996094 606.359375 79.058594 C 611.804688 73.984375 618.699219 71.082031 626.679688 71.082031 Z M 626.679688 71.082031 " fill-opacity="1" fill-rule="evenodd"/><path fill="#22b37f" d="M 223.179688 381.746094 C 216.285156 381.746094 210.839844 376.671875 210.476562 370.144531 C 210.113281 365.796875 209.753906 361.445312 209.753906 357.09375 C 209.753906 262.84375 286.316406 186.359375 380.296875 186.359375 C 456.863281 186.359375 524.714844 237.832031 545.035156 311.78125 C 546.851562 318.308594 542.859375 325.558594 535.964844 327.371094 C 529.070312 329.183594 522.175781 325.195312 520.363281 318.308594 C 502.945312 255.957031 445.613281 212.09375 380.296875 212.09375 C 300.46875 212.09375 235.515625 276.984375 235.515625 357.09375 C 235.515625 360.71875 235.515625 364.34375 235.878906 367.96875 C 236.242188 374.859375 231.160156 381.019531 223.902344 381.746094 C 223.539062 381.746094 223.902344 381.746094 223.179688 381.746094 Z M 223.179688 381.746094 " fill-opacity="1" fill-rule="evenodd"/><path fill="#373435" d="M 520 419.808594 L 512.015625 431.769531 C 508.386719 437.570312 500.40625 439.382812 494.597656 435.757812 C 488.792969 431.769531 486.980469 424.15625 490.609375 417.996094 L 526.894531 360.71875 C 529.433594 356.734375 534.152344 354.558594 538.503906 354.921875 C 543.222656 355.28125 547.578125 358.183594 549.390625 362.171875 L 577.332031 423.070312 C 580.234375 429.234375 577.332031 436.84375 571.164062 439.746094 C 569.347656 440.46875 567.535156 441.195312 565.71875 441.195312 C 560.640625 441.195312 556.285156 438.296875 554.109375 433.582031 L 546.851562 417.632812 C 529.433594 493.394531 461.578125 550.308594 380.296875 550.308594 C 304.097656 550.308594 236.242188 498.832031 215.921875 424.882812 C 214.105469 418.359375 218.097656 411.109375 224.992188 409.296875 C 231.523438 407.484375 238.78125 411.46875 240.59375 418.359375 C 258.011719 480.707031 315.34375 524.570312 380.296875 524.570312 C 446.703125 524.570312 502.582031 480.34375 520 419.808594 Z M 520 419.808594 " fill-opacity="1" fill-rule="evenodd"/><path fill="#e6375a" d="M 520 419.808594 L 512.015625 431.769531 C 508.386719 437.570312 500.40625 439.382812 494.597656 435.757812 C 488.792969 431.769531 486.980469 424.15625 490.609375 417.996094 L 526.894531 360.71875 C 529.433594 356.734375 534.152344 354.558594 538.503906 354.921875 C 543.222656 355.28125 547.578125 358.183594 549.390625 362.171875 L 577.332031 423.070312 C 580.234375 429.234375 577.332031 436.84375 571.164062 439.746094 C 569.347656 440.46875 567.535156 441.195312 565.71875 441.195312 C 560.640625 441.195312 556.285156 438.296875 554.109375 433.582031 L 546.851562 417.632812 C 529.433594 493.394531 461.578125 550.308594 380.296875 550.308594 C 304.097656 550.308594 236.242188 498.832031 215.921875 424.882812 C 214.105469 418.359375 218.097656 411.109375 224.992188 409.296875 C 231.523438 407.484375 238.78125 411.46875 240.59375 418.359375 C 258.011719 480.707031 315.34375 524.570312 380.296875 524.570312 C 446.703125 524.570312 502.582031 480.34375 520 419.808594 Z M 520 419.808594 " fill-opacity="1" fill-rule="evenodd"/><path fill="#22b37f" d="M 224.992188 342.59375 L 250.03125 303.445312 C 254.019531 297.28125 262.003906 295.832031 267.808594 299.457031 C 273.617188 303.445312 275.429688 311.421875 271.800781 317.21875 L 233.699219 375.945312 C 231.523438 379.570312 227.53125 381.746094 223.179688 381.746094 C 222.453125 381.746094 222.816406 381.746094 222.089844 381.746094 C 217.371094 381.382812 213.378906 378.484375 211.566406 374.496094 L 183.625 313.59375 C 180.722656 307.433594 183.625 299.820312 189.792969 296.921875 C 196.324219 294.019531 203.945312 296.558594 206.847656 303.082031 Z M 224.992188 342.59375 " fill-opacity="1" fill-rule="evenodd"/><path fill="#22b37f" d="M 380.296875 483.96875 C 316.433594 483.96875 264.542969 432.132812 264.542969 368.332031 C 264.542969 304.53125 316.433594 252.695312 380.296875 252.695312 C 444.160156 252.695312 496.050781 304.53125 496.050781 368.332031 C 496.050781 432.132812 444.160156 483.96875 380.296875 483.96875 Z M 380.296875 483.96875 " fill-opacity="1" fill-rule="evenodd"/><path fill="#fefefe" d="M 356.347656 428.871094 C 350.90625 428.871094 345.824219 426.695312 342.195312 423.070312 L 309.175781 390.082031 C 305.183594 386.09375 303.371094 381.382812 303.371094 375.945312 C 303.371094 370.507812 305.183594 365.433594 309.175781 361.808594 C 312.804688 358.183594 317.886719 356.007812 322.964844 356.007812 C 328.40625 356.007812 333.488281 358.183594 337.117188 361.808594 L 356.347656 381.019531 L 423.476562 313.59375 C 427.46875 309.96875 432.550781 307.796875 437.628906 307.796875 C 443.074219 307.796875 448.152344 309.96875 451.78125 313.59375 C 455.410156 317.21875 457.585938 322.296875 457.585938 327.734375 C 457.585938 332.808594 455.410156 337.882812 451.78125 341.871094 L 370.5 423.070312 C 366.507812 426.695312 361.429688 428.871094 356.347656 428.871094 Z M 356.347656 428.871094 " fill-opacity="1" fill-rule="evenodd"/></svg>