<svg xmlns="http://www.w3.org/2000/svg" xmlns:xlink="http://www.w3.org/1999/xlink" width="1000" zoomAndPan="magnify" viewBox="0 0 750 599.999999" height="800" preserveAspectRatio="xMidYMid meet" version="1.0"><defs><g/><clipPath id="d94585779e"><path d="M 121.464844 322.6875 L 628.464844 322.6875 L 628.464844 479.425781 L 121.464844 479.425781 Z M 121.464844 322.6875 " clip-rule="nonzero"/></clipPath></defs><rect x="-75" width="900" fill="#ffffff" y="-60" height="719.999999" fill-opacity="1"/><rect x="-75" width="900" fill="#ffffff" y="-60" height="719.999999" fill-opacity="1"/><rect x="-75" width="900" fill="#371b72" y="-60" height="719.999999" fill-opacity="1"/><g clip-path="url(#d94585779e)"><path fill="#ffffff" d="M 607.007812 475.996094 C 589.480469 474.132812 571.945312 472.328125 554.417969 470.46875 C 535.964844 468.511719 517.507812 466.554688 499.066406 464.472656 C 497.714844 464.320312 496.144531 463.441406 495.234375 462.390625 C 488.824219 454.976562 482.558594 447.425781 476.246094 439.917969 C 465.003906 426.546875 453.78125 413.164062 442.523438 399.808594 C 429.660156 384.542969 416.765625 369.304688 403.882812 354.050781 C 395.390625 343.996094 386.882812 333.953125 378.425781 323.863281 C 377.3125 322.539062 376.582031 322.140625 375.265625 323.695312 C 363.703125 337.347656 352.0625 350.929688 340.46875 364.558594 C 324.027344 383.890625 307.625 403.253906 291.179688 422.578125 C 280.027344 435.679688 268.800781 448.714844 257.679688 461.847656 C 256.285156 463.492188 254.773438 464.28125 252.695312 464.484375 C 241.730469 465.5625 230.773438 466.714844 219.820312 467.875 C 190.40625 470.988281 160.992188 474.113281 131.582031 477.242188 C 128.207031 477.601562 124.835938 478.03125 121.464844 478.429688 C 122.886719 479 124.300781 479.191406 125.710938 479.195312 C 170.804688 479.234375 215.894531 479.152344 260.984375 479.425781 C 266.15625 479.457031 269.285156 477.613281 272.472656 473.757812 C 286.386719 456.910156 300.574219 440.292969 314.675781 423.605469 C 325.171875 411.179688 335.691406 398.777344 346.195312 386.359375 C 355.808594 374.996094 365.429688 363.640625 375.015625 352.25 C 376.136719 350.917969 376.964844 350.242188 378.390625 351.96875 C 386.28125 361.523438 394.257812 371.003906 402.183594 380.527344 C 415.121094 396.078125 428.027344 411.648438 440.964844 427.199219 C 454.777344 443.804688 468.640625 460.371094 482.394531 477.03125 C 483.753906 478.675781 485.125 479.304688 487.15625 479.300781 C 532.753906 479.246094 578.351562 479.238281 623.949219 479.203125 C 625.453125 479.203125 626.953125 479 628.457031 478.890625 C 628.457031 478.734375 628.460938 478.578125 628.464844 478.421875 C 621.3125 477.609375 614.164062 476.757812 607.007812 475.996094 " fill-opacity="1" fill-rule="nonzero"/></g><path fill="#ffffff" d="M 474.019531 432.867188 C 475.460938 434.617188 476.707031 434.425781 477.890625 432.675781 C 479.4375 430.390625 480.953125 428.082031 482.453125 425.765625 C 496.082031 404.667969 509.699219 383.5625 523.335938 362.472656 C 523.910156 361.582031 524.644531 360.796875 525.480469 359.738281 C 526.6875 361.351562 527.691406 362.625 528.628906 363.953125 C 543.765625 385.445312 559.042969 406.84375 573.914062 428.535156 C 576.914062 432.914062 580.023438 434.945312 585.085938 434.242188 C 587.179688 433.949219 589.347656 434.191406 592.144531 434.191406 C 591.148438 432.734375 590.699219 432.027344 590.203125 431.359375 C 583.007812 421.675781 575.804688 412 568.605469 402.320312 C 555.136719 384.203125 541.660156 366.09375 528.214844 347.960938 C 525.347656 344.09375 525.429688 344.09375 521.300781 346.539062 C 505.164062 356.097656 489.015625 365.628906 472.871094 375.171875 C 463.113281 380.941406 453.371094 386.734375 443.589844 392.457031 C 442.058594 393.355469 441.984375 394.136719 443.089844 395.46875 C 453.421875 407.914062 463.730469 420.382812 474.019531 432.867188 " fill-opacity="1" fill-rule="nonzero"/><path fill="#ffffff" d="M 172.390625 435.894531 C 173.035156 435.871094 173.792969 435.003906 174.253906 434.347656 C 190.738281 410.949219 207.199219 387.527344 223.640625 364.097656 C 224.222656 363.265625 224.597656 362.285156 225.171875 361.175781 C 226.375 362.640625 226.796875 363.066406 227.121094 363.5625 C 232.726562 372.167969 238.34375 380.765625 243.917969 389.390625 C 253.566406 404.324219 263.179688 419.277344 272.828125 434.207031 C 274.402344 436.644531 275.589844 436.695312 277.367188 434.539062 C 287.425781 422.316406 297.484375 410.09375 307.535156 397.867188 C 308.066406 397.21875 308.515625 396.503906 309.203125 395.539062 C 308.164062 394.84375 307.484375 394.339844 306.761719 393.914062 C 296.984375 388.175781 287.191406 382.476562 277.429688 376.71875 C 260.761719 366.886719 244.113281 357.023438 227.46875 347.152344 C 226.222656 346.414062 225.359375 346.484375 224.453125 347.742188 C 222.390625 350.609375 220.195312 353.371094 218.089844 356.203125 C 199.328125 381.441406 180.570312 406.679688 161.824219 431.925781 C 160.988281 433.050781 160.265625 434.265625 159.140625 435.964844 C 164 435.964844 168.199219 436.035156 172.390625 435.894531 " fill-opacity="1" fill-rule="nonzero"/><path fill="#ffffff" d="M 378.851562 364.929688 C 377.300781 363.085938 376.476562 362.855469 374.820312 364.859375 C 362.933594 379.261719 350.925781 393.5625 338.964844 407.90625 C 336.34375 411.046875 333.757812 414.222656 331.152344 417.378906 C 331.328125 417.558594 331.5 417.742188 331.671875 417.921875 C 332.175781 417.484375 332.699219 417.066406 333.179688 416.605469 C 339.628906 410.441406 346.078125 404.273438 352.519531 398.097656 C 360.011719 390.914062 367.503906 383.730469 374.980469 376.53125 C 376.0625 375.484375 376.9375 374.808594 378.386719 376.195312 C 389.117188 386.449219 399.902344 396.636719 410.6875 406.828125 C 414.988281 410.894531 419.328125 414.921875 423.652344 418.964844 C 423.203125 417.5 422.398438 416.402344 421.519531 415.367188 C 407.289062 398.5625 393.027344 381.785156 378.851562 364.929688 " fill-opacity="1" fill-rule="nonzero"/><path fill="#ffffff" d="M 372.542969 453.289062 C 366.867188 453.339844 361.191406 453.367188 355.515625 453.292969 C 353.675781 453.265625 353.1875 454.066406 353.234375 455.796875 C 353.316406 459.015625 353.257812 462.238281 353.257812 465.460938 C 353.246094 465.460938 353.238281 465.460938 353.226562 465.460938 C 353.226562 468.769531 353.3125 472.082031 353.195312 475.386719 C 353.125 477.40625 353.808594 478.171875 355.8125 478.132812 C 361.144531 478.035156 366.488281 477.96875 371.820312 478.15625 C 374.292969 478.242188 374.890625 477.1875 374.859375 474.953125 C 374.765625 468.507812 374.730469 462.066406 374.765625 455.625 C 374.773438 453.933594 374.175781 453.273438 372.542969 453.289062 " fill-opacity="1" fill-rule="nonzero"/><path fill="#ffffff" d="M 375.058594 435.09375 C 375.0625 431.085938 375.035156 427.082031 375.074219 423.078125 C 375.089844 421.394531 374.441406 420.652344 372.769531 420.910156 C 367.042969 421.800781 362.121094 424.183594 358.3125 428.804688 C 353.710938 434.378906 352.875 440.972656 353.1875 447.921875 C 353.257812 449.503906 354.179688 449.6875 355.417969 449.683594 C 361.007812 449.664062 366.597656 449.613281 372.1875 449.730469 C 374.484375 449.78125 375.128906 448.734375 375.082031 446.582031 C 374.996094 442.753906 375.054688 438.921875 375.058594 435.09375 " fill-opacity="1" fill-rule="nonzero"/><path fill="#ffffff" d="M 398.320312 455.550781 C 398.332031 453.832031 397.617188 453.277344 396.023438 453.292969 C 390.859375 453.339844 385.691406 453.332031 380.527344 453.273438 C 378.871094 453.253906 378.296875 453.96875 378.332031 455.628906 C 378.410156 458.933594 378.355469 462.242188 378.355469 465.546875 C 378.355469 468.855469 378.421875 472.164062 378.332031 475.46875 C 378.277344 477.304688 378.785156 478.175781 380.75 478.136719 C 385.828125 478.035156 390.910156 478.039062 395.992188 478.117188 C 397.785156 478.148438 398.371094 477.398438 398.355469 475.652344 C 398.296875 468.949219 398.285156 462.25 398.320312 455.550781 " fill-opacity="1" fill-rule="nonzero"/><path fill="#ffffff" d="M 380.621094 421.25 C 378.847656 420.902344 378.292969 421.410156 378.3125 423.152344 C 378.355469 427.15625 378.324219 431.164062 378.324219 435.171875 C 378.328125 435.171875 378.332031 435.171875 378.332031 435.171875 C 378.332031 439.089844 378.460938 443.015625 378.289062 446.925781 C 378.1875 449.230469 379.105469 449.78125 381.121094 449.714844 C 384.679688 449.605469 388.238281 449.675781 391.796875 449.6875 C 398.425781 449.699219 398.425781 449.703125 398.371094 442.996094 C 398.277344 432.175781 390.964844 423.285156 380.621094 421.25 " fill-opacity="1" fill-rule="nonzero"/><path fill="#ffffff" d="M 220.316406 408.308594 C 220.316406 406.671875 219.023438 405.339844 217.429688 405.339844 L 215.058594 405.339844 C 213.464844 405.339844 212.171875 406.671875 212.171875 408.308594 L 212.171875 413.359375 C 212.171875 414.996094 213.464844 416.324219 215.058594 416.324219 L 217.429688 416.324219 C 219.023438 416.324219 220.316406 414.996094 220.316406 413.359375 L 220.316406 408.308594 " fill-opacity="1" fill-rule="nonzero"/><path fill="#ffffff" d="M 231.507812 408.308594 C 231.507812 406.671875 230.21875 405.339844 228.621094 405.339844 L 226.253906 405.339844 C 224.660156 405.339844 223.367188 406.671875 223.367188 408.308594 L 223.367188 413.359375 C 223.367188 414.996094 224.660156 416.324219 226.253906 416.324219 L 228.621094 416.324219 C 230.21875 416.324219 231.507812 414.996094 231.507812 413.359375 L 231.507812 408.308594 " fill-opacity="1" fill-rule="nonzero"/><path fill="#ffffff" d="M 217.429688 418.417969 L 215.058594 418.417969 C 213.464844 418.417969 212.171875 419.746094 212.171875 421.386719 L 212.171875 426.4375 C 212.171875 428.074219 213.464844 429.402344 215.058594 429.402344 L 217.429688 429.402344 C 219.023438 429.402344 220.316406 428.074219 220.316406 426.4375 L 220.316406 421.386719 C 220.316406 419.746094 219.023438 418.417969 217.429688 418.417969 " fill-opacity="1" fill-rule="nonzero"/><path fill="#ffffff" d="M 228.621094 418.417969 L 226.253906 418.417969 C 224.660156 418.417969 223.367188 419.746094 223.367188 421.386719 L 223.367188 426.4375 C 223.367188 428.074219 224.660156 429.402344 226.253906 429.402344 L 228.621094 429.402344 C 230.21875 429.402344 231.507812 428.074219 231.507812 426.4375 L 231.507812 421.386719 C 231.507812 419.746094 230.21875 418.417969 228.621094 418.417969 " fill-opacity="1" fill-rule="nonzero"/><path fill="#ffffff" d="M 526.125 408.308594 C 526.125 406.671875 524.832031 405.339844 523.238281 405.339844 L 520.871094 405.339844 C 519.277344 405.339844 517.984375 406.671875 517.984375 408.308594 L 517.984375 413.359375 C 517.984375 414.996094 519.277344 416.324219 520.871094 416.324219 L 523.238281 416.324219 C 524.832031 416.324219 526.125 414.996094 526.125 413.359375 L 526.125 408.308594 " fill-opacity="1" fill-rule="nonzero"/><path fill="#ffffff" d="M 537.320312 408.308594 C 537.320312 406.671875 536.027344 405.339844 534.433594 405.339844 L 532.066406 405.339844 C 530.472656 405.339844 529.179688 406.671875 529.179688 408.308594 L 529.179688 413.359375 C 529.179688 414.996094 530.472656 416.324219 532.066406 416.324219 L 534.433594 416.324219 C 536.027344 416.324219 537.320312 414.996094 537.320312 413.359375 L 537.320312 408.308594 " fill-opacity="1" fill-rule="nonzero"/><path fill="#ffffff" d="M 523.238281 418.417969 L 520.871094 418.417969 C 519.277344 418.417969 517.984375 419.746094 517.984375 421.386719 L 517.984375 426.4375 C 517.984375 428.074219 519.277344 429.402344 520.871094 429.402344 L 523.238281 429.402344 C 524.832031 429.402344 526.125 428.074219 526.125 426.4375 L 526.125 421.386719 C 526.125 419.746094 524.832031 418.417969 523.238281 418.417969 " fill-opacity="1" fill-rule="nonzero"/><path fill="#ffffff" d="M 534.433594 418.417969 L 532.066406 418.417969 C 530.472656 418.417969 529.179688 419.746094 529.179688 421.386719 L 529.179688 426.4375 C 529.179688 428.074219 530.472656 429.402344 532.066406 429.402344 L 534.433594 429.402344 C 536.027344 429.402344 537.320312 428.074219 537.320312 426.4375 L 537.320312 421.386719 C 537.320312 419.746094 536.027344 418.417969 534.433594 418.417969 " fill-opacity="1" fill-rule="nonzero"/><g fill="#ffffff" fill-opacity="1"><g transform="translate(141.57461, 273.499561)"><g><path d="M 156.9375 -148.21875 C 156.9375 -180 136.6875 -201.09375 96.46875 -201.09375 L 28.40625 -201.09375 C 26.15625 -201.09375 25.03125 -199.96875 25.03125 -198 L 25.03125 -3.09375 C 25.03125 -1.125 26.15625 0 28.40625 0 L 96.1875 0 C 140.0625 0 165.375 -21.65625 165.375 -58.21875 C 165.375 -81.5625 153.84375 -99.5625 133.03125 -107.15625 C 147.65625 -114.1875 156.9375 -129.09375 156.9375 -148.21875 Z M 132.75 -148.21875 C 132.75 -127.125 118.6875 -117 98.15625 -117 L 48.9375 -117 L 48.9375 -179.4375 L 96.46875 -179.4375 C 120.375 -179.4375 132.75 -167.34375 132.75 -148.21875 Z M 96.46875 -21.65625 L 48.9375 -21.65625 L 48.9375 -95.34375 L 98.15625 -95.34375 C 127.6875 -95.34375 141.1875 -80.4375 141.1875 -58.21875 C 141.1875 -33.1875 124.03125 -21.65625 96.46875 -21.65625 Z M 96.46875 -21.65625 "/></g></g></g><g fill="#ffffff" fill-opacity="1"><g transform="translate(305.510085, 273.499561)"><g><path d="M 95.90625 -201.09375 L 28.125 -201.09375 C 26.15625 -201.09375 25.03125 -199.96875 25.03125 -198 L 25.03125 -3.09375 C 25.03125 -1.125 26.15625 0 28.125 0 L 45.84375 0 C 47.8125 0 48.9375 -1.125 48.9375 -3.09375 L 48.9375 -69.1875 L 95.90625 -69.1875 C 140.0625 -69.1875 165.65625 -93.65625 165.65625 -135.28125 C 165.65625 -176.34375 140.34375 -201.09375 95.90625 -201.09375 Z M 93.375 -91.40625 L 48.9375 -91.40625 L 48.9375 -178.875 L 93.375 -178.875 C 125.71875 -178.875 141.46875 -164.25 141.46875 -135.28125 C 141.46875 -106.03125 125.71875 -91.40625 93.375 -91.40625 Z M 93.375 -91.40625 "/></g></g></g><g fill="#ffffff" fill-opacity="1"><g transform="translate(467.750308, 273.499561)"><g><path d="M 171 -68.625 L 171 -198 C 171 -199.96875 169.59375 -201.09375 167.625 -201.09375 L 149.625 -201.09375 C 147.65625 -201.09375 146.53125 -199.96875 146.53125 -198 L 146.53125 -70.3125 C 146.53125 -38.53125 128.53125 -19.125 97.03125 -19.125 C 65.53125 -19.125 47.8125 -38.53125 47.8125 -70.3125 L 47.8125 -198 C 47.8125 -199.96875 46.6875 -201.09375 44.71875 -201.09375 L 26.71875 -201.09375 C 24.75 -201.09375 23.34375 -199.96875 23.34375 -198 L 23.34375 -68.625 C 23.34375 -25.875 52.03125 3.09375 97.03125 3.09375 C 142.3125 3.09375 171 -25.875 171 -68.625 Z M 171 -68.625 "/></g></g></g></svg>