<?xml version="1.0" encoding="UTF-8" standalone="no"?>
<svg width="32px" height="24px" viewBox="0 0 32 24" version="1.1" xmlns="http://www.w3.org/2000/svg" xmlns:xlink="http://www.w3.org/1999/xlink">
    <!-- Generator: Sketch 44.1 (41455) - http://www.bohemiancoding.com/sketch -->
    <title>ID</title>
    <desc>Created with Sketch.</desc>
    <defs></defs>
    <g id="Page-2-Copy" stroke="none" stroke-width="1" fill="none" fill-rule="evenodd">
        <g id="232" stroke="#979797">
            <path d="M18.9953976,7 C18.4456547,7 18,7.44386482 18,8 C18,8.55228475 18.4556644,9 18.9953976,9 L27.0046024,9 C27.5543453,9 28,8.55613518 28,8 C28,7.44771525 27.5443356,7 27.0046024,7 L18.9953976,7 L18.9953976,7 Z M18.9953976,11 C18.4456547,11 18,11.4438648 18,12 C18,12.5522847 18.4556644,13 18.9953976,13 L27.0046024,13 C27.5543453,13 28,12.5561352 28,12 C28,11.4477153 27.5443356,11 27.0046024,11 L18.9953976,11 L18.9953976,11 Z M18.9953976,15 C18.4456547,15 18,15.4438648 18,16 C18,16.5522847 18.4556644,17 18.9953976,17 L27.0046024,17 C27.5543453,17 28,16.5561352 28,16 C28,15.4477153 27.5443356,15 27.0046024,15 L18.9953976,15 L18.9953976,15 Z M16,12 C16,8.6862915 13.3137085,6 10,6 C6.6862915,6 4,8.6862915 4,12 C4,15.3137085 6.6862915,18 10,18 C13.3137085,18 16,15.3137085 16,12 L16,12 Z M6,12 C6,9.790861 7.790861,8 10,8 C12.209139,8 14,9.790861 14,12 C14,14.209139 12.209139,16 10,16 C7.790861,16 6,14.209139 6,12 L6,12 Z" id="Rectangle-812" stroke="none" fill="#2A2630" fill-rule="evenodd"></path>
            <path d="M0,2.00494659 C0,0.897026226 0.89621101,0 2.00174332,0 L29.9982567,0 C31.1107383,0 32,0.897645164 32,2.00494659 L32,21.9950534 C32,23.1029738 31.103789,24 29.9982567,24 L2.00174332,24 C0.889261723,24 0,23.1023548 0,21.9950534 L0,2.00494659 Z M29.9982567,2 C29.9982567,2 2,2.00118956 2,2.00494659 C2,2.00494659 1.99802605,22 2.00174332,22 C2.00174332,22 30,21.9988104 30,21.9950534 C30,21.9950534 30.001974,2 29.9982567,2 Z" id="Rectangle-814" stroke="none" fill="#95909E" fill-rule="nonzero"></path>
        </g>
    </g>
</svg>