<svg xmlns="http://www.w3.org/2000/svg" xmlns:xlink="http://www.w3.org/1999/xlink" width="1000" zoomAndPan="magnify" viewBox="0 0 750 599.999999" height="800" preserveAspectRatio="xMidYMid meet" version="1.0"><defs><clipPath id="8f191b46c2"><path d="M 124 9.480469 L 526 9.480469 L 526 531 L 124 531 Z M 124 9.480469 " clip-rule="nonzero"/></clipPath><clipPath id="2c5c1378ad"><path d="M 375 209 L 655.515625 209 L 655.515625 590.730469 L 375 590.730469 Z M 375 209 " clip-rule="nonzero"/></clipPath><clipPath id="75317560c7"><path d="M 94.515625 69 L 476 69 L 476 110 L 94.515625 110 Z M 94.515625 69 " clip-rule="nonzero"/></clipPath></defs><g clip-path="url(#8f191b46c2)"><path fill="#e3e4e2" d="M 124.570312 9.5 L 525.285156 9.5 L 525.285156 530.585938 L 124.570312 530.585938 Z M 124.570312 9.5 " fill-opacity="1" fill-rule="nonzero"/></g><g clip-path="url(#2c5c1378ad)"><path fill="#0093b9" d="M 405.070312 209.917969 L 625.460938 209.917969 C 626.445312 209.917969 627.429688 209.964844 628.40625 210.0625 C 629.386719 210.15625 630.359375 210.300781 631.324219 210.496094 C 632.289062 210.6875 633.246094 210.925781 634.1875 211.210938 C 635.128906 211.496094 636.054688 211.828125 636.964844 212.207031 C 637.871094 212.582031 638.761719 213.003906 639.628906 213.464844 C 640.496094 213.929688 641.339844 214.4375 642.160156 214.984375 C 642.976562 215.53125 643.765625 216.117188 644.527344 216.742188 C 645.289062 217.367188 646.015625 218.027344 646.714844 218.722656 C 647.410156 219.417969 648.070312 220.148438 648.695312 220.90625 C 649.316406 221.667969 649.902344 222.457031 650.449219 223.277344 C 650.996094 224.097656 651.503906 224.941406 651.96875 225.808594 C 652.429688 226.675781 652.851562 227.566406 653.226562 228.476562 C 653.605469 229.382812 653.9375 230.308594 654.222656 231.253906 C 654.507812 232.195312 654.746094 233.148438 654.9375 234.113281 C 655.128906 235.082031 655.273438 236.054688 655.371094 237.03125 C 655.46875 238.011719 655.515625 238.996094 655.515625 239.980469 L 655.515625 560.648438 C 655.515625 561.632812 655.46875 562.613281 655.371094 563.59375 C 655.273438 564.574219 655.128906 565.546875 654.9375 566.511719 C 654.746094 567.476562 654.507812 568.429688 654.222656 569.375 C 653.9375 570.316406 653.605469 571.242188 653.226562 572.152344 C 652.851562 573.0625 652.429688 573.949219 651.96875 574.820312 C 651.503906 575.6875 650.996094 576.53125 650.449219 577.347656 C 649.902344 578.167969 649.316406 578.957031 648.695312 579.71875 C 648.070312 580.480469 647.410156 581.207031 646.714844 581.90625 C 646.015625 582.601562 645.289062 583.261719 644.527344 583.886719 C 643.765625 584.511719 642.976562 585.097656 642.160156 585.644531 C 641.339844 586.191406 640.496094 586.695312 639.628906 587.160156 C 638.761719 587.625 637.871094 588.042969 636.964844 588.421875 C 636.054688 588.796875 635.128906 589.128906 634.1875 589.414062 C 633.246094 589.699219 632.289062 589.941406 631.324219 590.132812 C 630.359375 590.324219 629.386719 590.46875 628.40625 590.566406 C 627.429688 590.660156 626.445312 590.710938 625.460938 590.710938 L 405.070312 590.710938 C 404.085938 590.710938 403.101562 590.660156 402.125 590.566406 C 401.144531 590.46875 400.171875 590.324219 399.207031 590.132812 C 398.242188 589.941406 397.285156 589.699219 396.34375 589.414062 C 395.402344 589.128906 394.476562 588.796875 393.566406 588.421875 C 392.660156 588.042969 391.769531 587.625 390.902344 587.160156 C 390.035156 586.695312 389.191406 586.191406 388.371094 585.644531 C 387.554688 585.097656 386.765625 584.511719 386.003906 583.886719 C 385.242188 583.261719 384.515625 582.601562 383.816406 581.90625 C 383.121094 581.207031 382.460938 580.480469 381.835938 579.71875 C 381.214844 578.957031 380.628906 578.167969 380.082031 577.347656 C 379.535156 576.53125 379.027344 575.6875 378.5625 574.820312 C 378.101562 573.949219 377.679688 573.0625 377.304688 572.152344 C 376.925781 571.242188 376.59375 570.316406 376.308594 569.375 C 376.023438 568.429688 375.785156 567.476562 375.59375 566.511719 C 375.402344 565.546875 375.257812 564.574219 375.160156 563.59375 C 375.0625 562.613281 375.015625 561.632812 375.015625 560.648438 L 375.015625 239.980469 C 375.015625 238.996094 375.0625 238.011719 375.160156 237.03125 C 375.257812 236.054688 375.402344 235.082031 375.59375 234.113281 C 375.785156 233.148438 376.023438 232.195312 376.308594 231.253906 C 376.59375 230.308594 376.925781 229.382812 377.304688 228.476562 C 377.679688 227.566406 378.101562 226.675781 378.5625 225.808594 C 379.027344 224.941406 379.535156 224.097656 380.082031 223.277344 C 380.628906 222.457031 381.214844 221.667969 381.835938 220.90625 C 382.460938 220.148438 383.121094 219.417969 383.816406 218.722656 C 384.515625 218.027344 385.242188 217.367188 386.003906 216.742188 C 386.765625 216.117188 387.554688 215.53125 388.371094 214.984375 C 389.191406 214.4375 390.035156 213.929688 390.902344 213.464844 C 391.769531 213.003906 392.660156 212.582031 393.566406 212.207031 C 394.476562 211.828125 395.402344 211.496094 396.34375 211.210938 C 397.285156 210.925781 398.242188 210.6875 399.207031 210.496094 C 400.171875 210.300781 401.144531 210.15625 402.125 210.0625 C 403.101562 209.964844 404.085938 209.917969 405.070312 209.917969 Z M 405.070312 209.917969 " fill-opacity="1" fill-rule="nonzero"/></g><path fill="#f6bc1b" d="M 415.085938 350.207031 L 455.160156 350.207031 L 455.160156 390.292969 L 415.085938 390.292969 Z M 415.085938 350.207031 " fill-opacity="1" fill-rule="nonzero"/><path fill="#f6bc1b" d="M 495.230469 350.207031 L 535.300781 350.207031 L 535.300781 390.292969 L 495.230469 390.292969 Z M 495.230469 350.207031 " fill-opacity="1" fill-rule="nonzero"/><path fill="#56c3c1" d="M 415.085938 250 L 615.445312 250 L 615.445312 310.125 L 415.085938 310.125 Z M 415.085938 250 " fill-opacity="1" fill-rule="nonzero"/><path fill="#f6bc1b" d="M 575.371094 350.207031 L 615.445312 350.207031 L 615.445312 390.292969 L 575.371094 390.292969 Z M 575.371094 350.207031 " fill-opacity="1" fill-rule="nonzero"/><path fill="#f6bc1b" d="M 415.085938 430.375 L 455.160156 430.375 L 455.160156 470.460938 L 415.085938 470.460938 Z M 415.085938 430.375 " fill-opacity="1" fill-rule="nonzero"/><path fill="#f6bc1b" d="M 495.230469 430.375 L 535.300781 430.375 L 535.300781 470.460938 L 495.230469 470.460938 Z M 495.230469 430.375 " fill-opacity="1" fill-rule="nonzero"/><path fill="#f6bc1b" d="M 575.371094 430.375 L 615.445312 430.375 L 615.445312 470.460938 L 575.371094 470.460938 Z M 575.371094 430.375 " fill-opacity="1" fill-rule="nonzero"/><path fill="#f6bc1b" d="M 415.085938 510.542969 L 455.160156 510.542969 L 455.160156 550.625 L 415.085938 550.625 Z M 415.085938 510.542969 " fill-opacity="1" fill-rule="nonzero"/><path fill="#f6bc1b" d="M 495.230469 510.542969 L 535.300781 510.542969 L 535.300781 550.625 L 495.230469 550.625 Z M 495.230469 510.542969 " fill-opacity="1" fill-rule="nonzero"/><path fill="#f6bc1b" d="M 575.371094 510.542969 L 615.445312 510.542969 L 615.445312 550.625 L 575.371094 550.625 Z M 575.371094 510.542969 " fill-opacity="1" fill-rule="nonzero"/><g clip-path="url(#75317560c7)"><path fill="#0093b9" d="M 455.160156 109.707031 L 114.550781 109.707031 C 113.894531 109.707031 113.242188 109.675781 112.585938 109.613281 C 111.933594 109.546875 111.285156 109.449219 110.644531 109.324219 C 110 109.195312 109.363281 109.035156 108.734375 108.84375 C 108.105469 108.65625 107.492188 108.433594 106.882812 108.183594 C 106.277344 107.929688 105.683594 107.652344 105.105469 107.339844 C 104.527344 107.03125 103.964844 106.695312 103.421875 106.332031 C 102.875 105.964844 102.347656 105.574219 101.839844 105.160156 C 101.332031 104.742188 100.847656 104.300781 100.382812 103.839844 C 99.921875 103.375 99.480469 102.886719 99.0625 102.378906 C 98.648438 101.875 98.257812 101.347656 97.890625 100.800781 C 97.527344 100.253906 97.191406 99.691406 96.882812 99.113281 C 96.570312 98.535156 96.292969 97.941406 96.039062 97.335938 C 95.789062 96.730469 95.570312 96.113281 95.378906 95.484375 C 95.1875 94.855469 95.027344 94.21875 94.902344 93.578125 C 94.773438 92.933594 94.675781 92.285156 94.613281 91.628906 C 94.546875 90.976562 94.515625 90.324219 94.515625 89.667969 C 94.515625 89.011719 94.546875 88.355469 94.613281 87.703125 C 94.675781 87.046875 94.773438 86.398438 94.902344 85.757812 C 95.027344 85.113281 95.1875 84.476562 95.378906 83.847656 C 95.570312 83.21875 95.789062 82.601562 96.039062 81.996094 C 96.292969 81.390625 96.570312 80.796875 96.882812 80.21875 C 97.191406 79.640625 97.527344 79.078125 97.890625 78.53125 C 98.257812 77.984375 98.648438 77.460938 99.0625 76.953125 C 99.480469 76.445312 99.921875 75.957031 100.382812 75.496094 C 100.847656 75.03125 101.332031 74.589844 101.839844 74.175781 C 102.347656 73.757812 102.875 73.367188 103.421875 73.003906 C 103.964844 72.636719 104.527344 72.300781 105.105469 71.992188 C 105.683594 71.683594 106.277344 71.402344 106.882812 71.148438 C 107.492188 70.898438 108.105469 70.679688 108.734375 70.488281 C 109.363281 70.296875 110 70.136719 110.644531 70.007812 C 111.285156 69.882812 111.933594 69.785156 112.585938 69.722656 C 113.242188 69.65625 113.894531 69.625 114.550781 69.625 L 455.160156 69.625 L 475.195312 89.667969 Z M 455.160156 109.707031 " fill-opacity="1" fill-rule="nonzero"/></g><path fill="#f6bc1b" d="M 284.855469 159.8125 L 204.710938 159.8125 C 203.382812 159.8125 202.105469 159.558594 200.878906 159.050781 C 199.652344 158.542969 198.566406 157.816406 197.628906 156.878906 L 157.558594 116.792969 C 156.617188 115.855469 155.894531 114.769531 155.386719 113.542969 C 154.875 112.316406 154.621094 111.035156 154.621094 109.707031 L 154.621094 69.625 L 174.660156 69.625 L 174.660156 105.558594 L 208.859375 139.769531 L 284.855469 139.769531 Z M 284.855469 159.8125 " fill-opacity="1" fill-rule="nonzero"/><path fill="#0093b9" d="M 164.640625 199.894531 L 324.925781 199.894531 L 324.925781 320.144531 L 164.640625 320.144531 Z M 164.640625 199.894531 " fill-opacity="1" fill-rule="nonzero"/><path fill="#56c3c1" d="M 213.046875 285.621094 L 196.378906 274.503906 L 216.414062 244.441406 C 216.75 243.9375 217.128906 243.46875 217.546875 243.03125 C 217.96875 242.597656 218.425781 242.203125 218.917969 241.851562 C 219.410156 241.5 219.929688 241.195312 220.476562 240.933594 C 221.027344 240.675781 221.59375 240.46875 222.175781 240.316406 C 222.761719 240.160156 223.355469 240.058594 223.960938 240.011719 C 224.5625 239.964844 225.167969 239.96875 225.769531 240.03125 C 226.371094 240.09375 226.960938 240.207031 227.542969 240.378906 C 228.125 240.546875 228.6875 240.765625 229.226562 241.039062 L 260.339844 256.597656 L 275.894531 225.476562 L 293.816406 234.441406 L 273.777344 274.523438 C 273.484375 275.113281 273.136719 275.667969 272.734375 276.1875 C 272.328125 276.707031 271.878906 277.179688 271.382812 277.613281 C 270.886719 278.042969 270.351562 278.421875 269.78125 278.746094 C 269.207031 279.074219 268.609375 279.339844 267.988281 279.546875 C 267.363281 279.757812 266.722656 279.902344 266.070312 279.984375 C 265.417969 280.066406 264.765625 280.082031 264.109375 280.039062 C 263.453125 279.992188 262.808594 279.878906 262.171875 279.707031 C 261.539062 279.53125 260.925781 279.296875 260.339844 279.003906 L 228.175781 262.917969 Z M 213.046875 285.621094 " fill-opacity="1" fill-rule="nonzero"/><path fill="#b2b1b4" d="M 204.710938 350.207031 L 324.925781 350.207031 L 324.925781 370.25 L 204.710938 370.25 Z M 204.710938 350.207031 " fill-opacity="1" fill-rule="nonzero"/><path fill="#b2b1b4" d="M 164.640625 390.292969 L 324.925781 390.292969 L 324.925781 410.335938 L 164.640625 410.335938 Z M 164.640625 390.292969 " fill-opacity="1" fill-rule="nonzero"/><path fill="#b2b1b4" d="M 164.640625 430.375 L 324.925781 430.375 L 324.925781 450.417969 L 164.640625 450.417969 Z M 164.640625 430.375 " fill-opacity="1" fill-rule="nonzero"/><path fill="#b2b1b4" d="M 164.640625 470.460938 L 304.890625 470.460938 L 304.890625 490.5 L 164.640625 490.5 Z M 164.640625 470.460938 " fill-opacity="1" fill-rule="nonzero"/><path fill="#b2b1b4" d="M 164.640625 350.207031 L 184.675781 350.207031 L 184.675781 370.25 L 164.640625 370.25 Z M 164.640625 350.207031 " fill-opacity="1" fill-rule="nonzero"/></svg>