<svg xmlns="http://www.w3.org/2000/svg" xmlns:xlink="http://www.w3.org/1999/xlink" width="1000" zoomAndPan="magnify" viewBox="0 0 750 599.999999" height="800" preserveAspectRatio="xMidYMid meet" version="1.0"><defs><clipPath id="740e1e8fec"><path d="M 106.75 31.75 L 643 31.75 L 643 568 L 106.75 568 Z M 106.75 31.75 " clip-rule="nonzero"/></clipPath></defs><g clip-path="url(#740e1e8fec)"><path fill="#371b72" d="M 374.875 31.75 C 226.792969 31.75 106.75 151.792969 106.75 299.875 C 106.75 447.957031 226.792969 568 374.875 568 C 522.957031 568 643 447.957031 643 299.875 C 643 151.792969 522.957031 31.75 374.875 31.75 Z M 530.789062 307.453125 C 523.144531 315.097656 511.867188 316.875 502.523438 312.800781 L 502.523438 414.496094 C 502.523438 435.648438 485.378906 452.792969 464.230469 452.792969 L 285.523438 452.792969 C 264.375 452.792969 247.230469 435.644531 247.230469 414.496094 L 247.230469 312.800781 C 237.886719 316.875 226.609375 315.097656 218.964844 307.453125 C 208.996094 297.484375 208.996094 281.320312 218.964844 271.351562 L 356.824219 133.492188 C 366.792969 123.519531 382.957031 123.519531 392.925781 133.492188 L 530.785156 271.351562 C 540.757812 281.320312 540.757812 297.484375 530.789062 307.453125 Z M 530.789062 307.453125 " fill-opacity="1" fill-rule="nonzero"/></g><path fill="#371b72" d="M 406.789062 312.378906 L 342.964844 312.378906 C 335.914062 312.378906 330.199219 318.09375 330.199219 325.144531 L 330.199219 401.734375 C 330.199219 408.78125 335.914062 414.5 342.964844 414.5 L 406.789062 414.5 C 413.835938 414.5 419.554688 408.78125 419.554688 401.734375 L 419.554688 325.144531 C 419.550781 318.09375 413.839844 312.378906 406.789062 312.378906 Z M 406.789062 312.378906 " fill-opacity="1" fill-rule="nonzero"/></svg>