<svg xmlns="http://www.w3.org/2000/svg" xmlns:xlink="http://www.w3.org/1999/xlink" width="1000" zoomAndPan="magnify" viewBox="0 0 750 599.999999" height="800" preserveAspectRatio="xMidYMid meet" version="1.0"><defs><clipPath id="d788bffda2"><path d="M 561 208 L 708.75 208 L 708.75 356 L 561 356 Z M 561 208 " clip-rule="nonzero"/></clipPath></defs><path fill="#b5cf7f" d="M 427.21875 85.824219 C 404.265625 70.527344 390.496094 44.824219 390.496094 17.289062 L 390.496094 12.394531 L 427.21875 24.632812 L 451.699219 0.15625 L 476.179688 24.632812 L 512.902344 12.394531 L 512.902344 17.289062 C 512.902344 44.824219 499.128906 70.527344 476.179688 85.824219 Z M 427.21875 85.824219 " fill-opacity="1" fill-rule="nonzero"/><path fill="#768753" d="M 497.753906 64.867188 C 491.9375 72.972656 484.746094 80.164062 476.179688 85.824219 L 427.21875 85.824219 C 418.648438 80.164062 411.457031 72.972656 405.644531 64.867188 C 420.332031 61.042969 435.785156 59.054688 451.699219 59.054688 C 467.609375 59.054688 483.066406 61.042969 497.753906 64.867188 Z M 497.753906 64.867188 " fill-opacity="1" fill-rule="nonzero"/><path fill="#eae9e4" d="M 60 73.585938 L 353.773438 73.585938 L 353.773438 465.222656 L 60 465.222656 Z M 60 73.585938 " fill-opacity="1" fill-rule="nonzero"/><path fill="#b22122" d="M 302.820312 336.105469 C 299.148438 330.445312 291.5 328.914062 285.839844 332.738281 C 270.996094 342.527344 254.625 349.261719 237.488281 352.625 C 241.007812 346.199219 242.230469 338.703125 240.394531 331.363281 C 238.101562 321.265625 230.753906 313.308594 220.964844 310.097656 C 210.253906 306.578125 198.625 309.332031 190.667969 317.285156 L 149.203125 358.746094 C 144.460938 363.488281 144.460938 371.289062 149.203125 376.03125 C 153.945312 380.773438 161.75 380.773438 166.492188 376.03125 L 207.957031 334.574219 C 209.335938 333.195312 211.324219 332.738281 213.160156 333.351562 C 215.457031 334.113281 216.21875 335.949219 216.527344 337.023438 C 216.832031 338.09375 216.984375 340.082031 215.148438 341.765625 L 198.164062 358.746094 C 194.644531 362.265625 193.574219 367.464844 195.5625 372.054688 C 197.554688 376.644531 201.992188 379.550781 206.886719 379.550781 L 211.78125 379.550781 C 243.148438 379.550781 273.445312 370.371094 299.457031 353.085938 C 304.964844 349.261719 306.496094 341.609375 302.820312 336.105469 Z M 302.820312 336.105469 " fill-opacity="1" fill-rule="nonzero"/><path fill="#cdccc8" d="M 268.089844 404.027344 L 145.683594 404.027344 C 138.953125 404.027344 133.445312 409.535156 133.445312 416.265625 C 133.445312 422.996094 138.953125 428.503906 145.683594 428.503906 L 268.089844 428.503906 C 274.820312 428.503906 280.332031 422.996094 280.332031 416.265625 C 280.332031 409.535156 274.820312 404.027344 268.089844 404.027344 Z M 268.089844 404.027344 " fill-opacity="1" fill-rule="nonzero"/><path fill="#cdccc8" d="M 170.164062 159.257812 L 243.609375 159.257812 C 250.339844 159.257812 255.847656 153.75 255.847656 147.019531 C 255.847656 140.285156 250.339844 134.777344 243.609375 134.777344 L 170.164062 134.777344 C 163.433594 134.777344 157.925781 140.285156 157.925781 147.019531 C 157.925781 153.75 163.433594 159.257812 170.164062 159.257812 Z M 170.164062 159.257812 " fill-opacity="1" fill-rule="nonzero"/><path fill="#cdccc8" d="M 133.445312 232.6875 L 170.164062 232.6875 C 176.898438 232.6875 182.40625 227.179688 182.40625 220.449219 C 182.40625 213.71875 176.898438 208.210938 170.164062 208.210938 L 133.445312 208.210938 C 126.710938 208.210938 121.203125 213.71875 121.203125 220.449219 C 121.203125 227.179688 126.710938 232.6875 133.445312 232.6875 Z M 133.445312 232.6875 " fill-opacity="1" fill-rule="nonzero"/><path fill="#cdccc8" d="M 206.886719 220.449219 C 206.886719 227.179688 212.394531 232.6875 219.128906 232.6875 L 268.089844 232.6875 C 274.820312 232.6875 280.332031 227.179688 280.332031 220.449219 C 280.332031 213.71875 274.820312 208.210938 268.089844 208.210938 L 219.128906 208.210938 C 212.394531 208.210938 206.886719 213.71875 206.886719 220.449219 Z M 206.886719 220.449219 " fill-opacity="1" fill-rule="nonzero"/><path fill="#cdccc8" d="M 219.128906 281.640625 C 225.859375 281.640625 231.367188 276.136719 231.367188 269.402344 C 231.367188 262.671875 225.859375 257.164062 219.128906 257.164062 L 133.445312 257.164062 C 126.710938 257.164062 121.203125 262.671875 121.203125 269.402344 C 121.203125 276.136719 126.710938 281.640625 133.445312 281.640625 Z M 219.128906 281.640625 " fill-opacity="1" fill-rule="nonzero"/><path fill="#b5cf7f" d="M 635.304688 465.222656 L 268.089844 465.222656 L 255.847656 428.503906 L 268.089844 404.027344 L 268.089844 257.164062 C 268.089844 155.738281 350.253906 73.585938 451.699219 73.585938 C 553.140625 73.585938 635.304688 155.738281 635.304688 257.164062 L 635.304688 404.027344 C 643.109375 419.632812 644.488281 437.835938 638.824219 454.511719 Z M 635.304688 465.222656 " fill-opacity="1" fill-rule="nonzero"/><path fill="#768753" d="M 488.417969 220.449219 C 495.152344 220.449219 500.660156 214.941406 500.660156 208.210938 L 500.660156 200.714844 C 500.660156 185.875 493.316406 172.261719 481.074219 164 C 475.71875 160.480469 469.90625 158.03125 463.9375 156.503906 L 463.9375 147.019531 C 463.9375 140.285156 458.429688 134.777344 451.699219 134.777344 C 444.964844 134.777344 439.457031 140.285156 439.457031 147.019531 L 439.457031 156.65625 C 433.492188 158.03125 427.675781 160.480469 422.320312 164.152344 C 410.082031 172.414062 402.734375 186.027344 402.734375 200.867188 C 402.734375 217.695312 412.070312 232.839844 427.0625 240.335938 L 465.316406 259.460938 C 472.046875 262.824219 476.179688 269.554688 476.179688 277.050781 C 476.179688 283.632812 472.964844 289.75 467.457031 293.421875 C 457.820312 299.847656 445.578125 299.847656 435.9375 293.421875 C 430.429688 289.75 427.21875 283.632812 427.21875 277.050781 L 427.21875 269.402344 C 427.21875 262.671875 421.707031 257.164062 414.976562 257.164062 C 408.242188 257.164062 402.734375 262.671875 402.734375 269.402344 L 402.734375 276.898438 C 402.734375 291.738281 410.082031 305.355469 422.320312 313.617188 C 427.675781 317.132812 433.488281 319.582031 439.457031 321.113281 L 439.457031 330.75 C 439.457031 337.480469 444.964844 342.988281 451.699219 342.988281 C 458.429688 342.988281 463.9375 337.480469 463.9375 330.75 L 463.9375 321.113281 C 469.90625 319.734375 475.71875 317.285156 481.074219 313.617188 C 493.316406 305.355469 500.660156 291.738281 500.660156 276.898438 C 500.660156 260.070312 491.328125 244.925781 476.332031 237.429688 L 438.082031 218.308594 C 431.347656 214.941406 427.21875 208.210938 427.21875 200.714844 C 427.21875 194.136719 430.429688 188.015625 435.9375 184.34375 C 445.578125 177.921875 457.816406 177.921875 467.457031 184.34375 C 472.964844 188.015625 476.179688 194.136719 476.179688 200.714844 L 476.179688 208.210938 C 476.179688 214.941406 481.6875 220.449219 488.417969 220.449219 Z M 488.417969 220.449219 " fill-opacity="1" fill-rule="nonzero"/><path fill="#fdc9a6" d="M 525.140625 465.222656 L 182.40625 465.222656 L 182.40625 501.9375 L 366.015625 599.84375 L 451.699219 599.84375 L 586.34375 563.128906 L 586.34375 416.265625 L 525.140625 416.265625 Z M 525.140625 465.222656 " fill-opacity="1" fill-rule="nonzero"/><path fill="#fdc9a6" d="M 512.902344 465.222656 L 512.902344 509.585938 L 315.367188 509.585938 C 305.730469 509.585938 297.007812 505.609375 290.582031 499.335938 C 284.308594 493.0625 280.332031 484.191406 280.332031 474.550781 C 280.332031 471.339844 280.789062 468.128906 281.554688 465.222656 Z M 512.902344 465.222656 " fill-opacity="1" fill-rule="nonzero"/><path fill="#8f5528" d="M 586.34375 404.027344 L 684.269531 404.027344 L 684.269531 599.84375 L 586.34375 599.84375 Z M 586.34375 404.027344 " fill-opacity="1" fill-rule="nonzero"/><g clip-path="url(#d788bffda2)"><path fill="#ffc864" d="M 708.75 281.640625 C 708.75 282.84375 708.71875 284.046875 708.660156 285.246094 C 708.601562 286.445312 708.515625 287.644531 708.394531 288.839844 C 708.277344 290.035156 708.132812 291.226562 707.953125 292.417969 C 707.777344 293.605469 707.574219 294.789062 707.339844 295.96875 C 707.105469 297.148438 706.839844 298.320312 706.550781 299.484375 C 706.257812 300.648438 705.9375 301.808594 705.585938 302.957031 C 705.238281 304.109375 704.863281 305.25 704.457031 306.378906 C 704.050781 307.511719 703.621094 308.632812 703.160156 309.742188 C 702.699219 310.851562 702.210938 311.953125 701.699219 313.039062 C 701.183594 314.125 700.644531 315.199219 700.078125 316.257812 C 699.511719 317.316406 698.917969 318.363281 698.300781 319.394531 C 697.683594 320.425781 697.039062 321.4375 696.371094 322.4375 C 695.703125 323.4375 695.011719 324.417969 694.296875 325.386719 C 693.582031 326.351562 692.839844 327.296875 692.078125 328.226562 C 691.316406 329.15625 690.53125 330.066406 689.722656 330.957031 C 688.917969 331.847656 688.089844 332.714844 687.238281 333.566406 C 686.390625 334.414062 685.519531 335.246094 684.628906 336.050781 C 683.738281 336.859375 682.828125 337.644531 681.898438 338.40625 C 680.96875 339.167969 680.023438 339.90625 679.058594 340.621094 C 678.089844 341.339844 677.109375 342.03125 676.109375 342.699219 C 675.109375 343.367188 674.09375 344.007812 673.0625 344.625 C 672.03125 345.246094 670.988281 345.835938 669.925781 346.402344 C 668.867188 346.96875 667.792969 347.507812 666.707031 348.023438 C 665.621094 348.539062 664.523438 349.023438 663.410156 349.484375 C 662.300781 349.945312 661.179688 350.375 660.050781 350.78125 C 658.917969 351.1875 657.777344 351.5625 656.625 351.910156 C 655.476562 352.261719 654.316406 352.582031 653.152344 352.871094 C 651.984375 353.164062 650.8125 353.429688 649.632812 353.664062 C 648.457031 353.898438 647.273438 354.101562 646.082031 354.277344 C 644.894531 354.457031 643.703125 354.601562 642.503906 354.71875 C 641.308594 354.835938 640.109375 354.925781 638.910156 354.984375 C 637.710938 355.042969 636.507812 355.074219 635.304688 355.074219 C 634.105469 355.074219 632.902344 355.042969 631.703125 354.984375 C 630.503906 354.925781 629.304688 354.835938 628.109375 354.71875 C 626.910156 354.601562 625.71875 354.457031 624.53125 354.277344 C 623.339844 354.101562 622.15625 353.898438 620.976562 353.664062 C 619.800781 353.429688 618.628906 353.164062 617.460938 352.871094 C 616.296875 352.582031 615.136719 352.261719 613.988281 351.910156 C 612.835938 351.5625 611.695312 351.1875 610.5625 350.78125 C 609.433594 350.375 608.3125 349.945312 607.199219 349.484375 C 606.089844 349.023438 604.992188 348.539062 603.90625 348.023438 C 602.820312 347.507812 601.746094 346.96875 600.6875 346.402344 C 599.625 345.835938 598.578125 345.246094 597.550781 344.625 C 596.519531 344.007812 595.503906 343.367188 594.503906 342.699219 C 593.503906 342.03125 592.523438 341.339844 591.554688 340.621094 C 590.589844 339.90625 589.644531 339.167969 588.714844 338.40625 C 587.785156 337.644531 586.875 336.859375 585.984375 336.050781 C 585.09375 335.246094 584.222656 334.414062 583.375 333.566406 C 582.523438 332.714844 581.695312 331.847656 580.886719 330.957031 C 580.082031 330.066406 579.296875 329.15625 578.535156 328.226562 C 577.769531 327.296875 577.03125 326.351562 576.316406 325.386719 C 575.601562 324.417969 574.910156 323.4375 574.242188 322.4375 C 573.574219 321.4375 572.929688 320.425781 572.3125 319.394531 C 571.695312 318.363281 571.101562 317.316406 570.535156 316.257812 C 569.96875 315.199219 569.429688 314.125 568.914062 313.039062 C 568.402344 311.953125 567.914062 310.851562 567.453125 309.742188 C 566.992188 308.632812 566.5625 307.511719 566.15625 306.378906 C 565.75 305.25 565.375 304.109375 565.027344 302.957031 C 564.675781 301.808594 564.355469 300.648438 564.0625 299.484375 C 563.773438 298.320312 563.507812 297.148438 563.273438 295.96875 C 563.039062 294.789062 562.835938 293.605469 562.65625 292.417969 C 562.480469 291.226562 562.335938 290.035156 562.214844 288.839844 C 562.097656 287.644531 562.011719 286.445312 561.953125 285.246094 C 561.894531 284.046875 561.863281 282.84375 561.863281 281.640625 C 561.863281 280.441406 561.894531 279.238281 561.953125 278.039062 C 562.011719 276.839844 562.097656 275.640625 562.21875 274.445312 C 562.335938 273.25 562.480469 272.054688 562.65625 270.867188 C 562.835938 269.679688 563.039062 268.496094 563.273438 267.316406 C 563.507812 266.136719 563.773438 264.964844 564.0625 263.800781 C 564.355469 262.632812 564.675781 261.476562 565.027344 260.324219 C 565.375 259.175781 565.75 258.035156 566.15625 256.902344 C 566.5625 255.773438 566.992188 254.652344 567.453125 253.542969 C 567.914062 252.429688 568.402344 251.332031 568.914062 250.246094 C 569.429688 249.160156 569.96875 248.085938 570.535156 247.027344 C 571.101562 245.96875 571.695312 244.921875 572.3125 243.890625 C 572.929688 242.859375 573.574219 241.84375 574.242188 240.847656 C 574.910156 239.847656 575.601562 238.863281 576.316406 237.898438 C 577.03125 236.933594 577.769531 235.988281 578.535156 235.058594 C 579.296875 234.128906 580.082031 233.21875 580.886719 232.328125 C 581.695312 231.4375 582.523438 230.566406 583.375 229.71875 C 584.222656 228.867188 585.09375 228.039062 585.984375 227.234375 C 586.875 226.425781 587.785156 225.640625 588.714844 224.878906 C 589.644531 224.117188 590.589844 223.378906 591.554688 222.660156 C 592.523438 221.945312 593.503906 221.253906 594.503906 220.585938 C 595.503906 219.917969 596.519531 219.277344 597.550781 218.65625 C 598.578125 218.039062 599.625 217.449219 600.683594 216.882812 C 601.746094 216.316406 602.820312 215.773438 603.90625 215.261719 C 604.992188 214.746094 606.089844 214.261719 607.199219 213.800781 C 608.3125 213.339844 609.433594 212.90625 610.5625 212.503906 C 611.695312 212.097656 612.835938 211.722656 613.988281 211.371094 C 615.136719 211.023438 616.296875 210.703125 617.460938 210.410156 C 618.628906 210.121094 619.800781 209.855469 620.976562 209.621094 C 622.15625 209.386719 623.339844 209.183594 624.53125 209.003906 C 625.71875 208.828125 626.910156 208.683594 628.109375 208.5625 C 629.304688 208.445312 630.503906 208.359375 631.703125 208.300781 C 632.902344 208.238281 634.105469 208.210938 635.304688 208.210938 C 636.507812 208.210938 637.710938 208.238281 638.910156 208.300781 C 640.109375 208.359375 641.308594 208.445312 642.503906 208.5625 C 643.703125 208.683594 644.894531 208.828125 646.082031 209.003906 C 647.273438 209.183594 648.457031 209.386719 649.632812 209.621094 C 650.8125 209.855469 651.984375 210.121094 653.152344 210.410156 C 654.316406 210.703125 655.476562 211.023438 656.625 211.371094 C 657.777344 211.722656 658.917969 212.097656 660.050781 212.503906 C 661.179688 212.90625 662.300781 213.339844 663.410156 213.800781 C 664.523438 214.261719 665.621094 214.746094 666.707031 215.261719 C 667.792969 215.773438 668.867188 216.316406 669.925781 216.882812 C 670.988281 217.449219 672.03125 218.039062 673.0625 218.65625 C 674.09375 219.277344 675.109375 219.917969 676.109375 220.585938 C 677.109375 221.253906 678.089844 221.945312 679.058594 222.660156 C 680.023438 223.378906 680.96875 224.117188 681.898438 224.878906 C 682.828125 225.640625 683.738281 226.425781 684.628906 227.234375 C 685.519531 228.039062 686.390625 228.867188 687.238281 229.71875 C 688.089844 230.566406 688.917969 231.4375 689.722656 232.328125 C 690.53125 233.21875 691.316406 234.128906 692.078125 235.058594 C 692.839844 235.988281 693.582031 236.933594 694.296875 237.898438 C 695.011719 238.863281 695.703125 239.847656 696.371094 240.847656 C 697.039062 241.84375 697.683594 242.859375 698.300781 243.890625 C 698.917969 244.921875 699.511719 245.96875 700.078125 247.027344 C 700.644531 248.085938 701.183594 249.160156 701.699219 250.246094 C 702.210938 251.332031 702.699219 252.429688 703.160156 253.542969 C 703.621094 254.652344 704.050781 255.773438 704.457031 256.902344 C 704.863281 258.035156 705.238281 259.175781 705.585938 260.324219 C 705.9375 261.476562 706.257812 262.632812 706.550781 263.800781 C 706.839844 264.964844 707.105469 266.136719 707.339844 267.316406 C 707.574219 268.496094 707.777344 269.679688 707.953125 270.867188 C 708.132812 272.054688 708.277344 273.25 708.394531 274.445312 C 708.515625 275.640625 708.601562 276.839844 708.660156 278.039062 C 708.71875 279.238281 708.75 280.441406 708.75 281.640625 Z M 708.75 281.640625 " fill-opacity="1" fill-rule="nonzero"/></g><path fill="#c59a4d" d="M 671.109375 248.140625 C 666.519531 243.242188 658.714844 242.9375 653.820312 247.527344 L 600.269531 297.707031 C 595.371094 302.292969 595.066406 310.097656 599.65625 314.992188 C 602.105469 317.59375 605.316406 318.816406 608.53125 318.816406 C 611.589844 318.816406 614.496094 317.746094 616.945312 315.453125 L 670.5 265.273438 C 675.394531 260.835938 675.699219 253.1875 671.109375 248.140625 Z M 671.109375 248.140625 " fill-opacity="1" fill-rule="nonzero"/><path fill="#c59a4d" d="M 618.628906 263.742188 C 623.523438 259.152344 623.832031 251.351562 619.242188 246.457031 C 614.652344 241.5625 606.847656 241.253906 601.949219 245.84375 C 597.054688 250.433594 596.75 258.234375 601.339844 263.132812 C 605.929688 268.027344 613.578125 268.332031 618.628906 263.742188 Z M 618.628906 263.742188 " fill-opacity="1" fill-rule="nonzero"/><path fill="#c59a4d" d="M 651.984375 299.542969 C 647.089844 304.128906 646.78125 311.933594 651.371094 316.828125 C 655.960938 321.722656 663.765625 322.03125 668.660156 317.441406 C 673.558594 312.851562 673.863281 305.046875 669.273438 300.152344 C 664.683594 295.105469 657.035156 294.953125 651.984375 299.542969 Z M 651.984375 299.542969 " fill-opacity="1" fill-rule="nonzero"/><path fill="#e6af89" d="M 484.59375 501.9375 L 463.9375 501.9375 L 298.691406 465.222656 L 182.40625 465.222656 L 182.40625 473.175781 L 286.449219 474.550781 C 286.449219 484.191406 290.429688 492.910156 296.703125 499.335938 C 302.976562 505.609375 311.851562 509.585938 321.488281 509.585938 L 484.59375 509.585938 C 486.738281 509.585938 488.417969 507.902344 488.417969 505.761719 C 488.417969 503.621094 486.738281 501.9375 484.59375 501.9375 Z M 484.59375 501.9375 " fill-opacity="1" fill-rule="nonzero"/><path fill="#fdc9a6" d="M 525.140625 416.265625 L 513.972656 409.535156 C 483.523438 391.175781 445.117188 392.09375 415.433594 411.828125 L 390.496094 428.503906 L 330.976562 428.503906 C 309.707031 428.503906 292.570312 445.640625 292.570312 466.902344 C 292.570312 486.179688 308.175781 501.9375 327.609375 501.9375 L 525.140625 501.9375 Z M 525.140625 416.265625 " fill-opacity="1" fill-rule="nonzero"/><path fill="#bbbab6" d="M 240.546875 110.300781 L 173.226562 110.300781 C 164.808594 110.300781 157.925781 103.417969 157.925781 95.003906 L 157.925781 61.347656 L 255.847656 61.347656 L 255.847656 95.003906 C 255.847656 103.417969 248.964844 110.300781 240.546875 110.300781 Z M 240.546875 110.300781 " fill-opacity="1" fill-rule="nonzero"/><path fill="#dcdbd6" d="M 240.546875 98.0625 L 173.226562 98.0625 C 164.808594 98.0625 157.925781 91.179688 157.925781 82.765625 L 157.925781 49.109375 L 255.847656 49.109375 L 255.847656 82.765625 C 255.847656 91.179688 248.964844 98.0625 240.546875 98.0625 Z M 240.546875 98.0625 " fill-opacity="1" fill-rule="nonzero"/></svg>