<svg xmlns="http://www.w3.org/2000/svg" xmlns:xlink="http://www.w3.org/1999/xlink" width="1000" zoomAndPan="magnify" viewBox="0 0 750 599.999999" height="800" preserveAspectRatio="xMidYMid meet" version="1.0"><defs><clipPath id="ed7850919d"><path d="M 96.851562 9.113281 L 653.148438 9.113281 L 653.148438 565.410156 L 96.851562 565.410156 Z M 96.851562 9.113281 " clip-rule="nonzero"/></clipPath><clipPath id="73401a1b2f"><path d="M 375 9.113281 C 221.382812 9.113281 96.851562 133.644531 96.851562 287.261719 C 96.851562 440.878906 221.382812 565.410156 375 565.410156 C 528.617188 565.410156 653.148438 440.878906 653.148438 287.261719 C 653.148438 133.644531 528.617188 9.113281 375 9.113281 " clip-rule="nonzero"/></clipPath><clipPath id="12f53dee11"><path d="M 140.699219 175 L 479 175 L 479 400 L 140.699219 400 Z M 140.699219 175 " clip-rule="nonzero"/></clipPath><clipPath id="73d498a025"><path d="M 387 98 L 542.699219 98 L 542.699219 476 L 387 476 Z M 387 98 " clip-rule="nonzero"/></clipPath></defs><g clip-path="url(#ed7850919d)"><g clip-path="url(#73401a1b2f)"><path fill="#371b72" d="M 96.851562 9.113281 L 653.148438 9.113281 L 653.148438 565.410156 L 96.851562 565.410156 Z M 96.851562 9.113281 " fill-opacity="1" fill-rule="nonzero"/></g></g><g clip-path="url(#12f53dee11)"><path fill="#ffffff" d="M 200.875 303.496094 L 464.757812 303.496094 C 468.421875 303.496094 471.683594 302.203125 474.203125 299.753906 C 474.3125 299.652344 474.433594 299.53125 474.566406 299.398438 L 474.988281 298.957031 C 477.335938 296.472656 478.570312 293.277344 478.570312 289.6875 L 478.570312 285.082031 C 478.570312 277.46875 472.375 271.273438 464.757812 271.273438 L 200.882812 271.273438 L 279.632812 202.65625 C 282.585938 200.089844 284.175781 196.308594 283.996094 192.292969 C 283.847656 188.949219 282.535156 185.699219 280.304688 183.148438 L 277.28125 179.679688 C 274.828125 176.867188 271.363281 175.316406 267.539062 175.316406 C 264.023438 175.316406 260.460938 176.664062 257.765625 179.011719 L 144.949219 277.308594 C 142.15625 279.738281 140.550781 283.410156 140.550781 287.390625 C 140.550781 291.367188 142.152344 295.042969 144.949219 297.480469 L 257.765625 395.761719 C 260.464844 398.113281 264.027344 399.460938 267.542969 399.460938 C 271.367188 399.460938 274.832031 397.910156 277.277344 395.09375 L 280.300781 391.625 C 282.53125 389.070312 283.84375 385.820312 283.992188 382.480469 C 284.171875 378.460938 282.582031 374.6875 279.632812 372.121094 Z M 200.875 303.496094 " fill-opacity="1" fill-rule="nonzero"/></g><g clip-path="url(#73d498a025)"><path fill="#ffffff" d="M 528.566406 98.769531 L 401.414062 98.769531 C 397.761719 98.769531 394.511719 100.054688 391.992188 102.496094 C 391.863281 102.617188 391.71875 102.753906 391.5625 102.910156 L 391.164062 103.335938 C 388.859375 105.796875 387.597656 109.0625 387.597656 112.582031 L 387.597656 117.1875 C 387.597656 124.800781 393.796875 130.996094 401.414062 130.996094 L 510.148438 130.996094 L 510.148438 443.777344 L 401.414062 443.777344 C 393.796875 443.777344 387.597656 449.972656 387.597656 457.585938 L 387.597656 462.191406 C 387.597656 469.804688 393.796875 476 401.414062 476 L 528.566406 476 C 536.183594 476 542.378906 469.804688 542.378906 462.191406 L 542.378906 112.578125 C 542.378906 104.964844 536.183594 98.769531 528.566406 98.769531 Z M 528.566406 98.769531 " fill-opacity="1" fill-rule="nonzero"/></g></svg>