<svg xmlns="http://www.w3.org/2000/svg" xmlns:xlink="http://www.w3.org/1999/xlink" width="1000" zoomAndPan="magnify" viewBox="0 0 750 599.999999" height="800" preserveAspectRatio="xMidYMid meet" version="1.0"><defs><clipPath id="1aec727497"><path d="M 347 181 L 664.292969 181 L 664.292969 589.292969 L 347 589.292969 Z M 347 181 " clip-rule="nonzero"/></clipPath><clipPath id="4f4f63e08b"><path d="M 86.042969 11.042969 L 585 11.042969 L 585 511 L 86.042969 511 Z M 86.042969 11.042969 " clip-rule="nonzero"/></clipPath></defs><path fill="#7797a2" d="M 644.648438 269.511719 L 560.667969 269.511719 C 552.359375 269.511719 545.613281 276.257812 545.613281 284.5625 L 545.613281 308.335938 C 545.613281 292.960938 533.128906 280.523438 517.800781 280.523438 L 501.003906 280.523438 L 501.003906 186.492188 L 480.949219 199.984375 L 463.144531 186.492188 L 446.484375 201.039062 L 430.925781 186.492188 L 416.652344 204.847656 L 395.957031 186.492188 L 395.957031 280.523438 L 379.617188 280.523438 C 364.246094 280.523438 351.761719 292.960938 351.761719 308.335938 L 351.761719 556.890625 C 351.761719 572.265625 364.246094 584.703125 379.617188 584.703125 L 517.800781 584.703125 C 533.128906 584.703125 545.613281 572.265625 545.613281 556.890625 L 545.613281 498.5625 L 566.3125 489.382812 L 566.3125 454.273438 L 644.648438 454.273438 C 652.957031 454.273438 659.703125 447.527344 659.703125 439.222656 L 659.703125 284.5625 C 659.703125 276.257812 652.957031 269.511719 644.648438 269.511719 Z M 644.648438 269.511719 " fill-opacity="1" fill-rule="nonzero"/><path fill="#7797a2" d="M 579.847656 15.632812 L 256.027344 15.632812 L 256.027344 111.410156 L 110.226562 111.410156 C 99.398438 111.410156 90.632812 120.175781 90.632812 131.007812 L 90.632812 486.675781 C 90.632812 497.507812 99.398438 506.273438 110.226562 506.273438 L 282.1875 506.273438 C 293.019531 506.273438 301.738281 497.507812 301.738281 486.675781 L 301.738281 170.65625 L 579.847656 170.65625 Z M 579.847656 15.632812 " fill-opacity="1" fill-rule="nonzero"/><path fill="#ef9d26" d="M 436.019531 376.441406 L 461.355469 376.441406 L 461.355469 401.820312 L 436.019531 401.820312 Z M 436.019531 376.441406 " fill-opacity="1" fill-rule="nonzero"/><path fill="#ef9d26" d="M 491.136719 418.753906 L 516.515625 418.753906 L 516.515625 444.132812 L 491.136719 444.132812 Z M 491.136719 418.753906 " fill-opacity="1" fill-rule="nonzero"/><path fill="#ef9d26" d="M 436.019531 461.066406 L 461.355469 461.066406 L 461.355469 486.398438 L 436.019531 486.398438 Z M 436.019531 461.066406 " fill-opacity="1" fill-rule="nonzero"/><path fill="#ef9d26" d="M 380.902344 418.753906 L 406.238281 418.753906 L 406.238281 444.132812 L 380.902344 444.132812 Z M 380.902344 418.753906 " fill-opacity="1" fill-rule="nonzero"/><path fill="#e15c63" d="M 436.019531 503.335938 L 461.355469 503.335938 L 461.355469 528.714844 L 436.019531 528.714844 Z M 436.019531 503.335938 " fill-opacity="1" fill-rule="nonzero"/><path fill="#ffc05a" d="M 380.902344 461.066406 L 406.238281 461.066406 L 406.238281 486.398438 L 380.902344 486.398438 Z M 380.902344 461.066406 " fill-opacity="1" fill-rule="nonzero"/><path fill="#ffc05a" d="M 491.136719 461.066406 L 516.515625 461.066406 L 516.515625 486.398438 L 491.136719 486.398438 Z M 491.136719 461.066406 " fill-opacity="1" fill-rule="nonzero"/><path fill="#ffc05a" d="M 491.136719 376.441406 L 516.515625 376.441406 L 516.515625 401.820312 L 491.136719 401.820312 Z M 491.136719 376.441406 " fill-opacity="1" fill-rule="nonzero"/><path fill="#ffc05a" d="M 436.019531 418.753906 L 461.355469 418.753906 L 461.355469 444.132812 L 436.019531 444.132812 Z M 436.019531 418.753906 " fill-opacity="1" fill-rule="nonzero"/><path fill="#8ecaef" d="M 659.703125 284.5625 L 659.703125 439.222656 C 659.703125 447.527344 652.957031 454.273438 644.648438 454.273438 L 566.3125 454.273438 L 566.3125 332.15625 L 545.613281 322.976562 L 545.613281 284.5625 C 545.613281 276.257812 552.359375 269.511719 560.667969 269.511719 L 644.648438 269.511719 C 652.957031 269.511719 659.703125 276.257812 659.703125 284.5625 Z M 599.492188 303.242188 C 599.492188 293.789062 591.828125 286.125 582.375 286.125 C 572.917969 286.125 565.253906 293.789062 565.253906 303.242188 C 565.253906 312.695312 572.917969 320.359375 582.375 320.359375 C 591.828125 320.359375 599.492188 312.695312 599.492188 303.242188 Z M 599.492188 303.242188 " fill-opacity="1" fill-rule="nonzero"/><path fill="#e15c63" d="M 599.492188 303.242188 C 599.492188 303.800781 599.464844 304.363281 599.410156 304.917969 C 599.355469 305.476562 599.273438 306.03125 599.164062 306.582031 C 599.054688 307.132812 598.917969 307.675781 598.753906 308.210938 C 598.589844 308.746094 598.402344 309.273438 598.1875 309.792969 C 597.972656 310.3125 597.734375 310.816406 597.46875 311.3125 C 597.207031 311.804688 596.917969 312.285156 596.605469 312.753906 C 596.296875 313.21875 595.960938 313.667969 595.605469 314.101562 C 595.25 314.535156 594.875 314.949219 594.476562 315.347656 C 594.082031 315.742188 593.667969 316.117188 593.234375 316.472656 C 592.800781 316.828125 592.351562 317.164062 591.882812 317.476562 C 591.417969 317.785156 590.9375 318.074219 590.441406 318.339844 C 589.949219 318.601562 589.441406 318.84375 588.925781 319.058594 C 588.40625 319.273438 587.878906 319.460938 587.34375 319.621094 C 586.804688 319.785156 586.261719 319.921875 585.710938 320.03125 C 585.164062 320.140625 584.609375 320.222656 584.050781 320.277344 C 583.492188 320.332031 582.933594 320.359375 582.375 320.359375 C 581.8125 320.359375 581.253906 320.332031 580.695312 320.277344 C 580.136719 320.222656 579.582031 320.140625 579.035156 320.03125 C 578.484375 319.921875 577.941406 319.785156 577.402344 319.621094 C 576.867188 319.460938 576.339844 319.273438 575.824219 319.058594 C 575.304688 318.84375 574.796875 318.601562 574.304688 318.339844 C 573.808594 318.074219 573.328125 317.785156 572.863281 317.476562 C 572.398438 317.164062 571.945312 316.828125 571.515625 316.472656 C 571.082031 316.117188 570.664062 315.742188 570.269531 315.347656 C 569.871094 314.949219 569.496094 314.535156 569.140625 314.101562 C 568.785156 313.667969 568.453125 313.21875 568.140625 312.753906 C 567.828125 312.285156 567.539062 311.804688 567.277344 311.3125 C 567.011719 310.816406 566.773438 310.3125 566.558594 309.792969 C 566.34375 309.273438 566.15625 308.746094 565.992188 308.210938 C 565.828125 307.675781 565.695312 307.132812 565.585938 306.582031 C 565.476562 306.03125 565.394531 305.476562 565.335938 304.917969 C 565.28125 304.363281 565.253906 303.800781 565.253906 303.242188 C 565.253906 302.679688 565.28125 302.121094 565.335938 301.5625 C 565.394531 301.007812 565.476562 300.453125 565.585938 299.902344 C 565.695312 299.351562 565.828125 298.808594 565.992188 298.273438 C 566.15625 297.738281 566.34375 297.210938 566.558594 296.691406 C 566.773438 296.171875 567.011719 295.667969 567.277344 295.171875 C 567.539062 294.679688 567.828125 294.199219 568.140625 293.730469 C 568.453125 293.265625 568.785156 292.816406 569.140625 292.382812 C 569.496094 291.949219 569.871094 291.535156 570.269531 291.136719 C 570.664062 290.742188 571.082031 290.363281 571.515625 290.007812 C 571.945312 289.652344 572.398438 289.320312 572.863281 289.007812 C 573.328125 288.699219 573.808594 288.410156 574.304688 288.144531 C 574.796875 287.882812 575.304688 287.640625 575.824219 287.425781 C 576.339844 287.210938 576.867188 287.023438 577.402344 286.859375 C 577.941406 286.699219 578.484375 286.5625 579.035156 286.453125 C 579.582031 286.34375 580.136719 286.261719 580.695312 286.207031 C 581.253906 286.152344 581.8125 286.125 582.375 286.125 C 582.933594 286.125 583.492188 286.152344 584.050781 286.207031 C 584.609375 286.261719 585.164062 286.34375 585.714844 286.453125 C 586.261719 286.5625 586.804688 286.699219 587.34375 286.859375 C 587.878906 287.023438 588.40625 287.210938 588.925781 287.425781 C 589.441406 287.640625 589.949219 287.882812 590.441406 288.144531 C 590.9375 288.410156 591.417969 288.699219 591.882812 289.007812 C 592.351562 289.320312 592.800781 289.652344 593.234375 290.007812 C 593.667969 290.363281 594.082031 290.742188 594.476562 291.136719 C 594.875 291.535156 595.25 291.949219 595.605469 292.382812 C 595.960938 292.816406 596.296875 293.265625 596.605469 293.730469 C 596.917969 294.199219 597.207031 294.679688 597.46875 295.171875 C 597.734375 295.667969 597.972656 296.171875 598.1875 296.691406 C 598.402344 297.210938 598.589844 297.738281 598.753906 298.273438 C 598.917969 298.808594 599.054688 299.351562 599.164062 299.902344 C 599.273438 300.453125 599.355469 301.007812 599.410156 301.5625 C 599.464844 302.121094 599.492188 302.679688 599.492188 303.242188 Z M 599.492188 303.242188 " fill-opacity="1" fill-rule="nonzero"/><path fill="#349370" d="M 579.847656 15.632812 L 579.847656 170.65625 L 301.738281 170.65625 L 301.738281 154.089844 L 541.851562 154.089844 C 541.851562 143.167969 550.707031 134.265625 561.675781 134.265625 L 561.675781 51.980469 C 550.707031 51.980469 541.851562 43.121094 541.851562 32.152344 L 294.027344 32.152344 C 294.027344 43.121094 285.125 51.980469 274.203125 51.980469 L 274.203125 111.410156 L 256.027344 111.410156 L 256.027344 15.632812 Z M 579.847656 15.632812 " fill-opacity="1" fill-rule="nonzero"/><path fill="#4d727a" d="M 566.3125 454.273438 L 566.3125 489.382812 L 545.613281 498.5625 L 545.613281 322.976562 L 566.3125 332.15625 Z M 566.3125 454.273438 " fill-opacity="1" fill-rule="nonzero"/><path fill="#53b79a" d="M 561.675781 51.980469 L 561.675781 134.265625 C 550.707031 134.265625 541.851562 143.167969 541.851562 154.089844 L 301.738281 154.089844 L 301.738281 131.007812 C 301.738281 120.175781 293.019531 111.410156 282.1875 111.410156 L 274.203125 111.410156 L 274.203125 51.980469 C 285.125 51.980469 294.027344 43.121094 294.027344 32.152344 L 541.851562 32.152344 C 541.851562 43.121094 550.707031 51.980469 561.675781 51.980469 Z M 463.878906 93.144531 C 463.878906 67.765625 443.316406 47.207031 417.9375 47.207031 C 392.558594 47.207031 372 67.765625 372 93.144531 C 372 118.523438 392.558594 139.082031 417.9375 139.082031 C 443.316406 139.082031 463.878906 118.523438 463.878906 93.144531 Z M 463.878906 93.144531 " fill-opacity="1" fill-rule="nonzero"/><path fill="#4d727a" d="M 545.613281 523.4375 L 545.613281 556.890625 C 545.613281 572.265625 533.128906 584.703125 517.800781 584.703125 L 379.617188 584.703125 C 364.246094 584.703125 351.761719 572.265625 351.761719 556.890625 L 351.761719 523.4375 C 351.761719 538.765625 364.246094 551.246094 379.617188 551.246094 L 517.800781 551.246094 C 533.128906 551.246094 545.613281 538.765625 545.613281 523.4375 Z M 545.613281 523.4375 " fill-opacity="1" fill-rule="nonzero"/><path fill="#c2e6f9" d="M 375.398438 308.429688 L 521.976562 308.429688 L 521.976562 355.835938 L 375.398438 355.835938 Z M 375.398438 308.429688 " fill-opacity="1" fill-rule="nonzero"/><path fill="#fbe2ae" d="M 501.003906 186.492188 L 501.003906 280.523438 L 395.957031 280.523438 L 395.957031 186.492188 L 416.652344 204.847656 L 430.925781 186.492188 L 446.484375 201.039062 L 463.144531 186.492188 L 480.949219 199.984375 Z M 501.003906 186.492188 " fill-opacity="1" fill-rule="nonzero"/><path fill="#349370" d="M 417.9375 117.835938 C 425.742188 117.835938 432.074219 112.28125 432.074219 105.488281 C 432.074219 98.652344 425.742188 93.144531 417.9375 93.144531 L 417.9375 68.453125 C 410.136719 68.453125 403.804688 73.960938 403.804688 80.800781 C 403.804688 87.589844 410.136719 93.144531 417.9375 93.144531 Z M 417.9375 47.207031 C 443.316406 47.207031 463.878906 67.765625 463.878906 93.144531 C 463.878906 118.523438 443.316406 139.082031 417.9375 139.082031 C 392.558594 139.082031 372 118.523438 372 93.144531 C 372 67.765625 392.558594 47.207031 417.9375 47.207031 Z M 417.9375 47.207031 " fill-opacity="1" fill-rule="nonzero"/><path fill="#349370" d="M 417.9375 93.144531 C 425.742188 93.144531 432.074219 98.652344 432.074219 105.488281 C 432.074219 112.28125 425.742188 117.835938 417.9375 117.835938 Z M 417.9375 93.144531 " fill-opacity="1" fill-rule="nonzero"/><path fill="#349370" d="M 417.9375 68.453125 L 417.9375 93.144531 C 410.136719 93.144531 403.804688 87.589844 403.804688 80.800781 C 403.804688 73.960938 410.136719 68.453125 417.9375 68.453125 Z M 417.9375 68.453125 " fill-opacity="1" fill-rule="nonzero"/><path fill="#ffc05a" d="M 380.902344 376.441406 L 406.238281 376.441406 L 406.238281 401.820312 L 380.902344 401.820312 Z M 380.902344 376.441406 " fill-opacity="1" fill-rule="nonzero"/><path fill="#ffc05a" d="M 301.738281 170.65625 L 301.738281 486.675781 L 90.632812 486.675781 L 90.632812 131.007812 C 90.632812 120.175781 99.398438 111.410156 110.226562 111.410156 L 123.996094 140.324219 L 268.421875 140.324219 L 282.1875 111.410156 C 293.019531 111.410156 301.738281 120.175781 301.738281 131.007812 Z M 284.757812 300.167969 C 284.757812 251.246094 245.105469 211.59375 196.183594 211.59375 C 147.308594 211.59375 107.65625 251.246094 107.65625 300.167969 C 107.65625 349.089844 147.308594 388.695312 196.183594 388.695312 C 245.105469 388.695312 284.757812 349.089844 284.757812 300.167969 Z M 284.757812 300.167969 " fill-opacity="1" fill-rule="nonzero"/><path fill="#ef9d26" d="M 90.632812 486.675781 L 301.738281 486.675781 C 301.738281 497.507812 293.019531 506.273438 282.1875 506.273438 L 110.226562 506.273438 C 99.398438 506.273438 90.632812 497.507812 90.632812 486.675781 Z M 90.632812 486.675781 " fill-opacity="1" fill-rule="nonzero"/><path fill="#ef9d26" d="M 256.027344 111.410156 L 282.1875 111.410156 L 268.421875 140.324219 L 123.996094 140.324219 L 110.226562 111.410156 Z M 256.027344 111.410156 " fill-opacity="1" fill-rule="nonzero"/><path fill="#ef9d26" d="M 196.183594 355.46875 C 211.46875 355.46875 223.859375 343.078125 223.859375 327.839844 C 223.859375 312.558594 211.46875 300.167969 196.183594 300.167969 L 196.183594 244.867188 C 180.902344 244.867188 168.558594 257.257812 168.558594 272.492188 C 168.558594 287.777344 180.902344 300.167969 196.183594 300.167969 Z M 196.183594 211.59375 C 245.105469 211.59375 284.757812 251.246094 284.757812 300.167969 C 284.757812 349.089844 245.105469 388.695312 196.183594 388.695312 C 147.308594 388.695312 107.65625 349.089844 107.65625 300.167969 C 107.65625 251.246094 147.308594 211.59375 196.183594 211.59375 Z M 196.183594 211.59375 " fill-opacity="1" fill-rule="nonzero"/><path fill="#ef9d26" d="M 196.183594 300.167969 C 211.46875 300.167969 223.859375 312.558594 223.859375 327.839844 C 223.859375 343.078125 211.46875 355.46875 196.183594 355.46875 Z M 196.183594 300.167969 " fill-opacity="1" fill-rule="nonzero"/><path fill="#ef9d26" d="M 196.183594 244.867188 L 196.183594 300.167969 C 180.902344 300.167969 168.558594 287.777344 168.558594 272.492188 C 168.558594 257.257812 180.902344 244.867188 196.183594 244.867188 Z M 196.183594 244.867188 " fill-opacity="1" fill-rule="nonzero"/><path fill="#3a322b" d="M 196.195312 393.296875 C 247.546875 393.296875 289.328125 351.515625 289.328125 300.164062 C 289.328125 248.808594 247.546875 207.027344 196.195312 207.027344 C 144.839844 207.027344 103.058594 248.808594 103.058594 300.164062 C 103.058594 351.515625 144.839844 393.296875 196.195312 393.296875 Z M 196.195312 216.207031 C 242.484375 216.207031 280.152344 253.871094 280.152344 300.164062 C 280.152344 346.453125 242.492188 384.117188 196.195312 384.117188 C 149.898438 384.117188 112.238281 346.453125 112.238281 300.164062 C 112.238281 253.871094 149.902344 216.207031 196.195312 216.207031 Z M 196.195312 216.207031 " fill-opacity="1" fill-rule="nonzero"/><path fill="#3a322b" d="M 173.132812 327.816406 C 173.132812 325.285156 171.078125 323.226562 168.542969 323.226562 C 166.011719 323.226562 163.953125 325.285156 163.953125 327.816406 C 163.953125 344.035156 176 357.457031 191.609375 359.695312 L 191.609375 364.0625 C 191.609375 366.597656 193.664062 368.652344 196.199219 368.652344 C 198.730469 368.652344 200.789062 366.597656 200.789062 364.0625 L 200.789062 359.695312 C 216.394531 357.457031 228.441406 344.03125 228.441406 327.816406 C 228.441406 319.207031 225.089844 311.109375 219 305.019531 C 214.003906 300.023438 207.652344 296.910156 200.789062 295.9375 L 200.789062 249.910156 C 211.316406 252.042969 219.265625 261.363281 219.265625 272.511719 C 219.265625 275.046875 221.320312 277.101562 223.855469 277.101562 C 226.386719 277.101562 228.441406 275.046875 228.441406 272.511719 C 228.441406 256.292969 216.394531 242.875 200.789062 240.636719 L 200.789062 236.261719 C 200.789062 233.726562 198.730469 231.671875 196.199219 231.671875 C 193.664062 231.671875 191.609375 233.726562 191.609375 236.261719 L 191.609375 240.636719 C 176 242.875 163.953125 256.296875 163.953125 272.511719 C 163.953125 288.730469 176 302.148438 191.609375 304.390625 L 191.609375 350.417969 C 181.082031 348.285156 173.132812 338.964844 173.132812 327.816406 Z M 212.503906 311.507812 C 216.859375 315.863281 219.261719 321.652344 219.261719 327.816406 C 219.261719 338.964844 211.3125 348.285156 200.785156 350.417969 L 200.785156 305.214844 C 205.199219 306.097656 209.25 308.253906 212.503906 311.507812 Z M 173.132812 272.511719 C 173.132812 261.363281 181.082031 252.042969 191.609375 249.910156 L 191.609375 295.109375 C 181.082031 292.980469 173.132812 283.660156 173.132812 272.511719 Z M 173.132812 272.511719 " fill-opacity="1" fill-rule="nonzero"/><path fill="#3a322b" d="M 375.382812 360.449219 L 522 360.449219 C 524.535156 360.449219 526.589844 358.390625 526.589844 355.859375 L 526.589844 308.421875 C 526.589844 305.890625 524.535156 303.835938 522 303.835938 L 375.382812 303.835938 C 372.847656 303.835938 370.792969 305.890625 370.792969 308.421875 L 370.792969 355.859375 C 370.792969 358.390625 372.847656 360.449219 375.382812 360.449219 Z M 379.972656 313.011719 L 517.410156 313.011719 L 517.410156 351.269531 L 379.972656 351.269531 Z M 379.972656 313.011719 " fill-opacity="1" fill-rule="nonzero"/><path fill="#3a322b" d="M 503.820312 327.550781 L 440.980469 327.550781 C 438.449219 327.550781 436.394531 329.609375 436.394531 332.140625 C 436.394531 334.675781 438.449219 336.730469 440.980469 336.730469 L 503.820312 336.730469 C 506.351562 336.730469 508.40625 334.675781 508.40625 332.140625 C 508.40625 329.609375 506.351562 327.550781 503.820312 327.550781 Z M 503.820312 327.550781 " fill-opacity="1" fill-rule="nonzero"/><path fill="#3a322b" d="M 422.472656 327.550781 L 393.566406 327.550781 C 391.03125 327.550781 388.976562 329.609375 388.976562 332.140625 C 388.976562 334.675781 391.03125 336.730469 393.566406 336.730469 L 422.472656 336.730469 C 425.007812 336.730469 427.0625 334.675781 427.0625 332.140625 C 427.0625 329.609375 425.007812 327.550781 422.472656 327.550781 Z M 422.472656 327.550781 " fill-opacity="1" fill-rule="nonzero"/><path fill="#3a322b" d="M 461.371094 371.875 L 436.011719 371.875 C 433.480469 371.875 431.421875 373.929688 431.421875 376.464844 L 431.421875 401.820312 C 431.421875 404.351562 433.480469 406.410156 436.011719 406.410156 L 461.371094 406.410156 C 463.90625 406.410156 465.960938 404.351562 465.960938 401.820312 L 465.960938 376.464844 C 465.960938 373.929688 463.90625 371.875 461.371094 371.875 Z M 456.78125 397.230469 L 440.601562 397.230469 L 440.601562 381.054688 L 456.78125 381.054688 Z M 456.78125 397.230469 " fill-opacity="1" fill-rule="nonzero"/><path fill="#3a322b" d="M 461.371094 414.164062 L 436.011719 414.164062 C 433.480469 414.164062 431.421875 416.222656 431.421875 418.753906 L 431.421875 444.109375 C 431.421875 446.644531 433.480469 448.699219 436.011719 448.699219 L 461.371094 448.699219 C 463.90625 448.699219 465.960938 446.644531 465.960938 444.109375 L 465.960938 418.753906 C 465.960938 416.222656 463.90625 414.164062 461.371094 414.164062 Z M 456.78125 439.527344 L 440.601562 439.527344 L 440.601562 423.34375 L 456.78125 423.34375 Z M 456.78125 439.527344 " fill-opacity="1" fill-rule="nonzero"/><path fill="#3a322b" d="M 461.371094 456.460938 L 436.011719 456.460938 C 433.480469 456.460938 431.421875 458.515625 431.421875 461.050781 L 431.421875 486.40625 C 431.421875 488.9375 433.480469 490.996094 436.011719 490.996094 L 461.371094 490.996094 C 463.90625 490.996094 465.960938 488.9375 465.960938 486.40625 L 465.960938 461.050781 C 465.960938 458.515625 463.90625 456.460938 461.371094 456.460938 Z M 456.78125 481.820312 L 440.601562 481.820312 L 440.601562 465.644531 L 456.78125 465.644531 Z M 456.78125 481.820312 " fill-opacity="1" fill-rule="nonzero"/><path fill="#3a322b" d="M 406.242188 371.875 L 380.886719 371.875 C 378.351562 371.875 376.296875 373.929688 376.296875 376.464844 L 376.296875 401.820312 C 376.296875 404.351562 378.351562 406.410156 380.886719 406.410156 L 406.242188 406.410156 C 408.773438 406.410156 410.832031 404.351562 410.832031 401.820312 L 410.832031 376.464844 C 410.832031 373.929688 408.777344 371.875 406.242188 371.875 Z M 401.652344 397.230469 L 385.476562 397.230469 L 385.476562 381.054688 L 401.652344 381.054688 Z M 401.652344 397.230469 " fill-opacity="1" fill-rule="nonzero"/><path fill="#3a322b" d="M 406.242188 414.164062 L 380.886719 414.164062 C 378.351562 414.164062 376.296875 416.222656 376.296875 418.753906 L 376.296875 444.109375 C 376.296875 446.644531 378.351562 448.699219 380.886719 448.699219 L 406.242188 448.699219 C 408.773438 448.699219 410.832031 446.644531 410.832031 444.109375 L 410.832031 418.753906 C 410.832031 416.222656 408.777344 414.164062 406.242188 414.164062 Z M 401.652344 439.527344 L 385.476562 439.527344 L 385.476562 423.34375 L 401.652344 423.34375 Z M 401.652344 439.527344 " fill-opacity="1" fill-rule="nonzero"/><path fill="#3a322b" d="M 406.242188 456.460938 L 380.886719 456.460938 C 378.351562 456.460938 376.296875 458.515625 376.296875 461.050781 L 376.296875 486.40625 C 376.296875 488.9375 378.351562 490.996094 380.886719 490.996094 L 406.242188 490.996094 C 408.773438 490.996094 410.832031 488.9375 410.832031 486.40625 L 410.832031 461.050781 C 410.832031 458.515625 408.777344 456.460938 406.242188 456.460938 Z M 401.652344 481.820312 L 385.476562 481.820312 L 385.476562 465.644531 L 401.652344 465.644531 Z M 401.652344 481.820312 " fill-opacity="1" fill-rule="nonzero"/><path fill="#3a322b" d="M 516.5 371.875 L 491.136719 371.875 C 488.605469 371.875 486.550781 373.929688 486.550781 376.464844 L 486.550781 401.820312 C 486.550781 404.351562 488.605469 406.410156 491.136719 406.410156 L 516.5 406.410156 C 519.03125 406.410156 521.089844 404.351562 521.089844 401.820312 L 521.089844 376.464844 C 521.089844 373.929688 519.03125 371.875 516.5 371.875 Z M 511.910156 397.230469 L 495.726562 397.230469 L 495.726562 381.054688 L 511.910156 381.054688 Z M 511.910156 397.230469 " fill-opacity="1" fill-rule="nonzero"/><path fill="#3a322b" d="M 516.5 414.164062 L 491.136719 414.164062 C 488.605469 414.164062 486.550781 416.222656 486.550781 418.753906 L 486.550781 444.109375 C 486.550781 446.644531 488.605469 448.699219 491.136719 448.699219 L 516.5 448.699219 C 519.03125 448.699219 521.089844 446.644531 521.089844 444.109375 L 521.089844 418.753906 C 521.089844 416.222656 519.03125 414.164062 516.5 414.164062 Z M 511.910156 439.527344 L 495.726562 439.527344 L 495.726562 423.34375 L 511.910156 423.34375 Z M 511.910156 439.527344 " fill-opacity="1" fill-rule="nonzero"/><path fill="#3a322b" d="M 516.5 456.460938 L 491.136719 456.460938 C 488.605469 456.460938 486.550781 458.515625 486.550781 461.050781 L 486.550781 486.40625 C 486.550781 488.9375 488.605469 490.996094 491.136719 490.996094 L 516.5 490.996094 C 519.03125 490.996094 521.089844 488.9375 521.089844 486.40625 L 521.089844 461.050781 C 521.089844 458.515625 519.03125 456.460938 516.5 456.460938 Z M 511.910156 481.820312 L 495.726562 481.820312 L 495.726562 465.644531 L 511.910156 465.644531 Z M 511.910156 481.820312 " fill-opacity="1" fill-rule="nonzero"/><path fill="#3a322b" d="M 461.371094 498.75 L 436.011719 498.75 C 433.480469 498.75 431.421875 500.804688 431.421875 503.339844 L 431.421875 528.695312 C 431.421875 531.230469 433.480469 533.285156 436.011719 533.285156 L 461.371094 533.285156 C 463.90625 533.285156 465.960938 531.230469 465.960938 528.695312 L 465.960938 503.339844 C 465.960938 500.804688 463.90625 498.75 461.371094 498.75 Z M 456.78125 524.109375 L 440.601562 524.109375 L 440.601562 507.933594 L 456.78125 507.933594 Z M 456.78125 524.109375 " fill-opacity="1" fill-rule="nonzero"/><path fill="#3a322b" d="M 466.976562 233.382812 L 482.550781 233.382812 C 485.085938 233.382812 487.140625 231.328125 487.140625 228.792969 C 487.140625 226.261719 485.085938 224.207031 482.550781 224.207031 L 466.976562 224.207031 C 464.441406 224.207031 462.386719 226.261719 462.386719 228.792969 C 462.386719 231.328125 464.441406 233.382812 466.976562 233.382812 Z M 466.976562 233.382812 " fill-opacity="1" fill-rule="nonzero"/><path fill="#3a322b" d="M 449.328125 224.207031 L 414.402344 224.207031 C 411.867188 224.207031 409.8125 226.261719 409.8125 228.792969 C 409.8125 231.328125 411.867188 233.382812 414.402344 233.382812 L 449.328125 233.382812 C 451.863281 233.382812 453.917969 231.328125 453.917969 228.792969 C 453.917969 226.261719 451.863281 224.207031 449.328125 224.207031 Z M 449.328125 224.207031 " fill-opacity="1" fill-rule="nonzero"/><path fill="#3a322b" d="M 482.546875 242.035156 L 466.972656 242.035156 C 464.4375 242.035156 462.382812 244.089844 462.382812 246.625 C 462.382812 249.15625 464.4375 251.214844 466.972656 251.214844 L 482.546875 251.214844 C 485.082031 251.214844 487.136719 249.15625 487.136719 246.625 C 487.136719 244.089844 485.085938 242.035156 482.546875 242.035156 Z M 482.546875 242.035156 " fill-opacity="1" fill-rule="nonzero"/><path fill="#3a322b" d="M 449.328125 242.035156 L 414.402344 242.035156 C 411.867188 242.035156 409.8125 244.089844 409.8125 246.625 C 409.8125 249.15625 411.867188 251.214844 414.402344 251.214844 L 449.328125 251.214844 C 451.863281 251.214844 453.917969 249.15625 453.917969 246.625 C 453.917969 244.089844 451.863281 242.035156 449.328125 242.035156 Z M 449.328125 242.035156 " fill-opacity="1" fill-rule="nonzero"/><path fill="#3a322b" d="M 482.546875 260.304688 L 466.972656 260.304688 C 464.4375 260.304688 462.382812 262.359375 462.382812 264.894531 C 462.382812 267.425781 464.4375 269.484375 466.972656 269.484375 L 482.546875 269.484375 C 485.082031 269.484375 487.136719 267.425781 487.136719 264.894531 C 487.136719 262.359375 485.085938 260.304688 482.546875 260.304688 Z M 482.546875 260.304688 " fill-opacity="1" fill-rule="nonzero"/><path fill="#3a322b" d="M 449.328125 260.304688 L 414.402344 260.304688 C 411.867188 260.304688 409.8125 262.359375 409.8125 264.894531 C 409.8125 267.425781 411.867188 269.484375 414.402344 269.484375 L 449.328125 269.484375 C 451.863281 269.484375 453.917969 267.425781 453.917969 264.894531 C 453.917969 262.359375 451.863281 260.304688 449.328125 260.304688 Z M 449.328125 260.304688 " fill-opacity="1" fill-rule="nonzero"/><g clip-path="url(#1aec727497)"><path fill="#3a322b" d="M 644.640625 264.90625 L 560.667969 264.90625 C 549.832031 264.90625 541.011719 273.722656 541.011719 284.5625 L 541.011719 285.792969 C 535.117188 279.726562 526.890625 275.9375 517.785156 275.9375 L 505.582031 275.9375 L 505.582031 186.5 C 505.582031 184.800781 504.644531 183.246094 503.148438 182.453125 C 501.648438 181.652344 499.835938 181.746094 498.429688 182.691406 L 481.101562 194.332031 L 465.9375 182.84375 C 464.207031 181.53125 461.789062 181.613281 460.152344 183.035156 L 446.582031 194.851562 L 434.0625 183.144531 C 433.121094 182.265625 431.847656 181.835938 430.5625 181.917969 C 429.28125 182.019531 428.09375 182.664062 427.304688 183.683594 L 416.042969 198.179688 L 399.007812 183.0625 C 397.660156 181.863281 395.726562 181.570312 394.078125 182.308594 C 392.433594 183.054688 391.371094 184.691406 391.371094 186.496094 L 391.371094 275.925781 L 379.601562 275.925781 C 361.730469 275.925781 347.195312 290.460938 347.195312 308.332031 L 347.195312 556.882812 C 347.195312 574.753906 361.730469 589.289062 379.601562 589.289062 L 517.785156 589.289062 C 535.65625 589.289062 550.1875 574.753906 550.1875 556.882812 L 550.1875 501.546875 L 568.160156 493.574219 C 569.816406 492.839844 570.886719 491.191406 570.886719 489.378906 L 570.886719 458.878906 L 644.640625 458.878906 C 655.476562 458.878906 664.292969 450.0625 664.292969 439.222656 L 664.292969 284.5625 C 664.292969 273.722656 655.476562 264.90625 644.640625 264.90625 Z M 400.550781 196.710938 L 413.617188 208.304688 C 414.566406 209.148438 415.835938 209.5625 417.085938 209.441406 C 418.347656 209.328125 419.507812 208.6875 420.285156 207.6875 L 431.46875 193.292969 L 443.335938 204.390625 C 445.050781 205.996094 447.714844 206.039062 449.484375 204.5 L 463.363281 192.414062 L 478.164062 203.632812 C 479.730469 204.820312 481.871094 204.875 483.496094 203.78125 L 496.402344 195.113281 L 496.402344 275.929688 L 400.550781 275.929688 Z M 356.375 308.335938 C 356.375 295.527344 366.796875 285.109375 379.601562 285.109375 L 517.785156 285.109375 C 530.59375 285.109375 541.011719 295.53125 541.011719 308.335938 L 541.011719 322.875 C 541.011719 322.875 541.011719 322.878906 541.011719 322.878906 L 541.011719 498.644531 C 541.011719 498.644531 541.011719 498.648438 541.011719 498.648438 L 541.011719 523.414062 C 541.011719 536.222656 530.585938 546.640625 517.785156 546.640625 L 379.601562 546.640625 C 366.792969 546.640625 356.375 536.21875 356.375 523.414062 Z M 541.011719 556.886719 C 541.011719 569.695312 530.585938 580.113281 517.785156 580.113281 L 379.601562 580.113281 C 366.792969 580.113281 356.375 569.691406 356.375 556.886719 L 356.375 545.964844 C 362.265625 552.03125 370.496094 555.824219 379.601562 555.824219 L 517.785156 555.824219 C 526.890625 555.824219 535.117188 552.03125 541.011719 545.964844 Z M 561.703125 486.398438 L 550.183594 491.511719 L 550.183594 330.019531 L 561.703125 335.132812 Z M 655.113281 439.226562 C 655.113281 445.003906 650.414062 449.703125 644.640625 449.703125 L 570.886719 449.703125 L 570.886719 332.144531 C 570.886719 330.328125 569.816406 328.683594 568.160156 327.949219 L 550.1875 319.980469 L 550.1875 284.5625 C 550.1875 278.785156 554.886719 274.085938 560.667969 274.085938 L 644.640625 274.085938 C 650.414062 274.085938 655.113281 278.785156 655.113281 284.5625 Z M 655.113281 439.226562 " fill-opacity="1" fill-rule="nonzero"/></g><path fill="#3a322b" d="M 582.382812 281.539062 C 570.417969 281.539062 560.683594 291.273438 560.683594 303.238281 C 560.683594 315.203125 570.417969 324.933594 582.382812 324.933594 C 594.347656 324.933594 604.082031 315.203125 604.082031 303.238281 C 604.082031 291.273438 594.347656 281.539062 582.382812 281.539062 Z M 582.382812 315.757812 C 575.480469 315.757812 569.863281 310.140625 569.863281 303.238281 C 569.863281 296.335938 575.480469 290.71875 582.382812 290.71875 C 589.285156 290.71875 594.902344 296.335938 594.902344 303.238281 C 594.902344 310.140625 589.285156 315.757812 582.382812 315.757812 Z M 582.382812 315.757812 " fill-opacity="1" fill-rule="nonzero"/><path fill="#3a322b" d="M 590.644531 332.667969 C 588.109375 332.667969 586.054688 334.722656 586.054688 337.257812 L 586.054688 431.054688 C 586.054688 433.585938 588.109375 435.644531 590.644531 435.644531 C 593.175781 435.644531 595.234375 433.585938 595.234375 431.054688 L 595.234375 337.257812 C 595.234375 334.722656 593.175781 332.667969 590.644531 332.667969 Z M 590.644531 332.667969 " fill-opacity="1" fill-rule="nonzero"/><path fill="#3a322b" d="M 620.921875 399.917969 C 618.390625 399.917969 616.335938 401.976562 616.335938 404.507812 L 616.335938 420.242188 C 616.335938 422.773438 618.390625 424.832031 620.921875 424.832031 C 623.457031 424.832031 625.511719 422.773438 625.511719 420.242188 L 625.511719 404.507812 C 625.511719 401.976562 623.460938 399.917969 620.921875 399.917969 Z M 620.921875 399.917969 " fill-opacity="1" fill-rule="nonzero"/><path fill="#3a322b" d="M 620.921875 332.667969 C 618.390625 332.667969 616.335938 334.722656 616.335938 337.257812 L 616.335938 381.121094 C 616.335938 383.65625 618.390625 385.710938 620.921875 385.710938 C 623.457031 385.710938 625.511719 383.65625 625.511719 381.121094 L 625.511719 337.257812 C 625.511719 334.722656 623.460938 332.667969 620.921875 332.667969 Z M 620.921875 332.667969 " fill-opacity="1" fill-rule="nonzero"/><g clip-path="url(#4f4f63e08b)"><path fill="#3a322b" d="M 579.84375 175.222656 C 582.378906 175.222656 584.433594 173.167969 584.433594 170.632812 L 584.433594 15.632812 C 584.433594 13.097656 582.378906 11.042969 579.84375 11.042969 L 256.019531 11.042969 C 253.488281 11.042969 251.429688 13.097656 251.429688 15.632812 L 251.429688 106.824219 L 110.210938 106.824219 C 110.160156 106.824219 110.113281 106.839844 110.058594 106.839844 C 110.003906 106.839844 109.953125 106.851562 109.898438 106.855469 C 96.71875 107.027344 86.042969 117.769531 86.042969 130.988281 L 86.042969 486.683594 C 86.042969 500.007812 96.882812 510.851562 110.210938 510.851562 L 282.1875 510.851562 C 295.511719 510.851562 306.355469 500.011719 306.355469 486.683594 L 306.355469 175.222656 Z M 260.609375 20.222656 L 575.253906 20.222656 L 575.253906 166.046875 L 306.351562 166.046875 L 306.351562 158.683594 L 541.84375 158.683594 C 544.378906 158.683594 546.433594 156.628906 546.433594 154.09375 C 546.433594 145.695312 553.269531 138.867188 561.660156 138.867188 C 564.195312 138.867188 566.25 136.8125 566.25 134.277344 L 566.25 51.992188 C 566.25 49.460938 564.195312 47.402344 561.660156 47.402344 C 553.261719 47.402344 546.433594 40.570312 546.433594 32.175781 C 546.433594 29.640625 544.378906 27.585938 541.84375 27.585938 L 294.015625 27.585938 C 291.480469 27.585938 289.425781 29.640625 289.425781 32.175781 C 289.425781 40.574219 282.59375 47.402344 274.199219 47.402344 C 271.664062 47.402344 269.609375 49.460938 269.609375 51.992188 L 269.609375 106.824219 L 260.609375 106.824219 Z M 255.753906 116.003906 C 255.84375 116.007812 255.921875 116.058594 256.019531 116.058594 C 256.117188 116.058594 256.195312 116.011719 256.285156 116.003906 L 274.914062 116.003906 L 265.515625 135.71875 L 126.878906 135.71875 L 117.480469 116.003906 Z M 282.496094 106.851562 C 282.441406 106.847656 282.390625 106.839844 282.335938 106.835938 C 282.285156 106.835938 282.238281 106.820312 282.183594 106.820312 L 278.789062 106.820312 L 278.789062 56.148438 C 288.570312 54.28125 296.304688 46.550781 298.171875 36.765625 L 537.6875 36.765625 C 539.554688 46.550781 547.289062 54.28125 557.074219 56.148438 L 557.074219 130.121094 C 547.289062 131.988281 539.554688 139.722656 537.6875 149.503906 L 306.351562 149.503906 L 306.351562 130.988281 C 306.351562 117.769531 295.671875 107.027344 282.496094 106.851562 Z M 107.445312 116.285156 L 119.84375 142.285156 C 120.605469 143.882812 122.214844 144.902344 123.988281 144.902344 L 268.410156 144.902344 C 270.183594 144.902344 271.792969 143.882812 272.554688 142.285156 L 284.949219 116.285156 C 291.894531 117.585938 297.175781 123.671875 297.175781 130.992188 L 297.175781 482.101562 L 95.21875 482.101562 L 95.21875 130.988281 C 95.21875 123.671875 100.5 117.582031 107.445312 116.285156 Z M 282.183594 501.671875 L 110.210938 501.671875 C 103.554688 501.671875 97.96875 497.285156 96.015625 491.273438 L 296.378906 491.273438 C 294.429688 497.285156 288.839844 501.671875 282.183594 501.671875 Z M 282.183594 501.671875 " fill-opacity="1" fill-rule="nonzero"/></g><path fill="#3a322b" d="M 417.929688 143.652344 C 445.785156 143.652344 468.453125 120.992188 468.453125 93.128906 C 468.453125 65.269531 445.792969 42.605469 417.929688 42.605469 C 390.070312 42.605469 367.40625 65.273438 367.40625 93.128906 C 367.40625 120.988281 390.074219 143.652344 417.929688 143.652344 Z M 417.929688 51.785156 C 440.726562 51.785156 459.273438 70.335938 459.273438 93.128906 C 459.273438 115.925781 440.726562 134.476562 417.929688 134.476562 C 395.128906 134.476562 376.585938 115.925781 376.585938 93.128906 C 376.585938 70.335938 395.136719 51.785156 417.929688 51.785156 Z M 417.929688 51.785156 " fill-opacity="1" fill-rule="nonzero"/><path fill="#3a322b" d="M 408.398438 105.480469 C 408.398438 102.945312 406.34375 100.890625 403.808594 100.890625 C 401.277344 100.890625 399.21875 102.945312 399.21875 105.480469 C 399.21875 113.378906 405.25 119.976562 413.339844 121.839844 L 413.339844 123.554688 C 413.339844 126.085938 415.398438 128.140625 417.929688 128.140625 C 420.464844 128.140625 422.519531 126.085938 422.519531 123.554688 L 422.519531 121.839844 C 430.609375 119.976562 436.640625 113.378906 436.640625 105.480469 C 436.640625 97.582031 430.613281 90.988281 422.519531 89.121094 L 422.519531 74.027344 C 425.453125 75.351562 427.460938 77.867188 427.460938 80.78125 C 427.460938 83.3125 429.519531 85.371094 432.050781 85.371094 C 434.585938 85.371094 436.640625 83.3125 436.640625 80.78125 C 436.640625 72.882812 430.613281 66.289062 422.519531 64.421875 L 422.519531 62.707031 C 422.519531 60.175781 420.464844 58.117188 417.929688 58.117188 C 415.398438 58.117188 413.339844 60.175781 413.339844 62.707031 L 413.339844 64.421875 C 405.25 66.285156 399.21875 72.882812 399.21875 80.78125 C 399.21875 88.679688 405.25 95.277344 413.339844 97.140625 L 413.339844 112.234375 C 410.414062 110.914062 408.398438 108.398438 408.398438 105.480469 Z M 427.460938 105.480469 C 427.460938 108.398438 425.453125 110.914062 422.519531 112.242188 L 422.519531 98.726562 C 425.453125 100.050781 427.460938 102.566406 427.460938 105.480469 Z M 408.398438 80.785156 C 408.398438 77.867188 410.410156 75.351562 413.339844 74.03125 L 413.339844 87.546875 C 410.414062 86.21875 408.398438 83.703125 408.398438 80.785156 Z M 408.398438 80.785156 " fill-opacity="1" fill-rule="nonzero"/></svg>